<?xml version="1.0" encoding="UTF-8"?>
<svg version="1.1" xmlns="http://www.w3.org/2000/svg" width="1023" height="723">
<path d="M0 0 C3.82659323 -0.62277286 7.1923351 -0.81924049 11 0 C14.15525266 2.84153729 15.96689321 6.3056962 18 10 C19.11255808 11.79941906 20.23768322 13.59112641 21.375 15.375 C21.9525 16.29023437 22.53 17.20546875 23.125 18.1484375 C38.90286921 42.14394692 59.98632213 65.73974159 83 83 C84.18314798 83.92207937 85.36536892 84.84534896 86.546875 85.76953125 C148.54283249 133.80722037 228.27709157 154.75850724 305.9140625 145.03515625 C361.69924815 137.26105136 419.26110164 114.34532718 460.69921875 75.16015625 C462.67546369 73.30470048 464.69006538 71.53159554 466.7421875 69.76171875 C477.76385621 60.15121292 488.11172734 49.61652624 497 38 C497.77085937 37.03449219 498.54171875 36.06898438 499.3359375 35.07421875 C508.0733542 24.00774302 516.13822071 12.3251865 523 0 C526.96 0 530.92 0 535 0 C533.46644257 5.85023761 530.42265517 10.39175994 527.125 15.375 C526.2592334 16.69359009 526.2592334 16.69359009 525.37597656 18.03881836 C519.91076997 26.28060631 514.0991828 34.21843708 508 42 C507.23171875 42.98226562 506.4634375 43.96453125 505.671875 44.9765625 C492.78486612 61.06214553 478.21019767 76.26970889 462 89 C460.89351338 89.91647709 459.78947691 90.83591783 458.6875 91.7578125 C396.92638312 143.01920053 314.75723645 164.18786201 235.60107422 157.23071289 C203.12168696 153.78306119 171.84767636 145.15381533 142 132 C141.24428711 131.67032227 140.48857422 131.34064453 139.70996094 131.00097656 C97.59509581 112.47344546 56.91632364 81.67438596 29 45 C27.98950162 43.71648619 26.97767441 42.43401794 25.96484375 41.15234375 C0 8.0464961 0 8.0464961 0 0 Z " fill="#AEC81D" transform="translate(241,522)"/>
<path d="M0 0 C1.29611206 -0.02767456 1.29611206 -0.02767456 2.6184082 -0.0559082 C9.54163379 0.01198633 14.9507759 1.64643559 19.9765625 6.55078125 C29.67661161 20.95162339 33.15748641 37.38604951 37.21411133 54.0324707 C37.78101628 56.47918715 37.78101628 56.47918715 38.875 58.5 C39.26655273 57.39096313 39.26655273 57.39096313 39.66601562 56.25952148 C56.02652508 10.21872705 56.02652508 10.21872705 70.875 2.5 C78.02144755 -0.3727907 86.88068889 -1.06021957 94.30078125 1.2578125 C97.55718286 3.02896027 100.04867676 5.27707664 101.875 8.5 C101.875 9.16 101.875 9.82 101.875 10.5 C99.32024038 9.27371538 97.10945783 7.97943133 94.75 6.375 C90.26508676 3.80943673 85.91165388 3.69947223 80.875 4.5 C75.28874313 7.02962575 72.43027205 11.0904347 69.875 16.5 C65.94498092 27.01673105 66.22128554 36.65581959 68.875 47.4375 C69.09357666 48.33774902 69.31215332 49.23799805 69.53735352 50.16552734 C76.17435222 76.0215557 91.45798858 105.02555673 114.37109375 120.03125 C118.43259333 122.41365849 122.60117875 124.52676764 126.875 126.5 C126.875 127.16 126.875 127.82 126.875 128.5 C108.1209386 129.00941615 91.73895513 128.63882732 77.39453125 115.17578125 C59.06490578 95.70943482 52.23389823 68.57147179 52.875 42.5 C52.215 42.5 51.555 42.5 50.875 42.5 C50.69106689 43.0554248 50.50713379 43.61084961 50.31762695 44.18310547 C49.06125188 47.9662304 47.79609437 51.74484028 46.48046875 55.5078125 C43.10802817 65.24910888 40.31045638 75.06243478 37.79174805 85.05908203 C37.55496338 85.99864746 37.31817871 86.93821289 37.07421875 87.90625 C36.86627686 88.74478516 36.65833496 89.58332031 36.4440918 90.44726562 C35.875 92.5 35.875 92.5 34.875 94.5 C31.34199827 93.04413285 30.93195046 92.61303049 29.0859375 88.94921875 C28.45791305 87.36825914 27.84723879 85.78034457 27.25 84.1875 C26.91806641 83.33188477 26.58613281 82.47626953 26.24414062 81.59472656 C21.44202862 69.02552881 17.17542724 56.24731581 12.875 43.5 C12.69437012 44.2842334 12.51374023 45.0684668 12.32763672 45.87646484 C-2.78780295 111.08387956 -2.78780295 111.08387956 -23.4375 124.5625 C-30.00663137 128.30677163 -36.72220542 128.10552813 -44.125 127.5 C-51.5385603 124.11837601 -55.24006856 117.86233984 -58.328125 110.6484375 C-60.00075137 106.13890563 -60.21789047 102.33030419 -60.125 97.5 C-59.7125 97.88671875 -59.3 98.2734375 -58.875 98.671875 C-52.09265449 104.78809729 -45.46245253 108.63936496 -36.125 108.5 C-27.64274208 107.64254002 -20.35715704 105.23200195 -14.5 98.875 C0.82610866 79.89981785 5.17103198 56.11976179 5.3125 32.3125 C5.32265137 31.0953833 5.33280273 29.8782666 5.34326172 28.62426758 C5.27584552 21.73594662 5.0248638 14.77584627 1.875 8.5 C-0.99791252 6.94383905 -2.02188784 6.65317007 -5.125 6.5 C-6.35283203 6.40138672 -6.35283203 6.40138672 -7.60546875 6.30078125 C-19.05925047 5.82147437 -29.12640167 9.16753437 -38.75 15.125 C-46.16287446 22.53787446 -49.10820508 31.0780138 -49.4375 41.3125 C-49.20803401 52.69974968 -45.52794745 62.87652525 -37.75 71.25 C-35.16466509 74.15094723 -35.16466509 74.15094723 -34.8125 77.25 C-36.88285094 80.79917304 -39.24544342 81.46545158 -43.125 82.5 C-49.11927936 80.59937484 -52.57832158 74.40299643 -55.39453125 69.1171875 C-60.01276351 57.92246194 -60.37280013 41.6294945 -56.5 30.125 C-55.37890625 27.7109375 -55.37890625 27.7109375 -54.125 25.5 C-53.70089844 24.70851563 -53.27679688 23.91703125 -52.83984375 23.1015625 C-46.31542228 12.16088917 -35.10349699 5.92833548 -23.06762695 2.73120117 C-15.40072914 0.88274589 -7.88217027 0.09827447 0 0 Z " fill="#AEC91E" transform="translate(60.125,297.5)"/>
<path d="M0 0 C2.64 0 5.28 0 8 0 C8.58265625 1.06734375 9.1653125 2.1346875 9.765625 3.234375 C22.50817325 26.45325018 36.26600534 48.43832361 53 69 C53.41556152 69.51997559 53.83112305 70.03995117 54.25927734 70.57568359 C61.30023856 79.35149373 69.13592359 87.34411595 77.0625 95.3125 C77.56929291 95.82455994 78.07608582 96.33661987 78.59823608 96.86419678 C85.39414773 103.71463834 92.42427017 110.00338598 100 116 C101.27825586 117.04808661 102.55456923 118.09855095 103.828125 119.15234375 C112.2109623 126.00721571 120.82939378 132.24276544 130 138 C130.73814941 138.46374023 131.47629883 138.92748047 132.23681641 139.40527344 C211.37829263 188.73893569 305.13628627 205.00645856 396 184 C465.85128786 167.19086656 534.42435932 127.26621454 579 70 C579.93739296 68.84934846 580.87768676 67.70105623 581.8203125 66.5546875 C598.53758025 46.14137008 612.34723575 23.6529733 624 0 C626.97 0 629.94 0 633 0 C631.29898653 6.18454898 628.17913098 11.59127881 625.125 17.1875 C624.54419678 18.25250732 623.96339355 19.31751465 623.36499023 20.41479492 C611.15725627 42.57497223 596.87506775 63.13645247 580 82 C579.34257813 82.74354736 578.68515625 83.48709473 578.0078125 84.25317383 C572.40276235 90.552059 566.58422836 96.59888986 560.625 102.5625 C559.75617187 103.44357422 558.88734375 104.32464844 557.9921875 105.23242188 C551.97646493 111.26149295 545.65822629 116.69655415 539 122 C537.82624652 122.97665894 536.65517169 123.95655772 535.48828125 124.94140625 C506.18079299 149.30496775 471.73530652 168.03164343 436 181 C434.71174316 181.47131348 434.71174316 181.47131348 433.39746094 181.95214844 C410.30934278 190.30165315 386.34612065 195.91205259 362 199 C361.35524719 199.08613556 360.71049438 199.17227112 360.04620361 199.26101685 C345.70253202 201.14461963 331.45198228 201.35905717 317 201.3125 C315.2412001 201.30976578 315.2412001 201.30976578 313.4468689 201.30697632 C296.44909877 201.26245562 279.78977889 200.88459996 263 198 C261.42653809 197.74259033 261.42653809 197.74259033 259.82128906 197.47998047 C227.17097076 192.04473706 195.85503613 182.27906511 166 168 C165.31711914 167.67708984 164.63423828 167.35417969 163.93066406 167.02148438 C131.86845089 151.78680758 100.3019558 131.29153403 75.5625 105.5625 C73.82934402 103.82934402 71.99811352 102.26793953 70.125 100.6875 C65.29896999 96.52167834 61.2028211 91.77953755 57 87 C55.54177809 85.41656405 54.08344437 83.83323105 52.625 82.25 C47.08940538 76.08231326 42.00563386 69.59997243 37 63 C36.48920898 62.3296875 35.97841797 61.659375 35.45214844 60.96875 C22.41628273 43.74823486 11.87538185 25.16532945 1.94921875 6.015625 C1.57112061 5.28633789 1.19302246 4.55705078 0.8034668 3.80566406 C0 2 0 2 0 0 Z " fill="#009DDF" transform="translate(192,522)"/>
<path d="M0 0 C0.71907028 -0.00044186 1.43814056 -0.00088371 2.17900085 -0.00133896 C25.83755073 -0.00894497 49.28740823 0.5406749 72.8125 3.25 C73.58348022 3.33721313 74.35446045 3.42442627 75.14880371 3.51428223 C123.46080824 9.01118276 194.1826969 17.15887047 230.8125 53.25 C231.83993227 54.56231121 232.84766925 55.89100059 233.8125 57.25 C229.64210937 56.57710395 226.02622842 55.23012588 222.125 53.625 C220.78837687 53.08139674 219.45144926 52.53854168 218.11425781 51.99633789 C217.06365173 51.56878708 217.06365173 51.56878708 215.99182129 51.13259888 C167.19192042 31.36922671 116.36507929 23.3647013 64.125 18.875 C63.20292755 18.79546082 62.2808551 18.71592163 61.33084106 18.63397217 C38.7452262 16.72091293 16.22576283 16.04176262 -6.4375 16.0625 C-8.28066803 16.06340637 -8.28066803 16.06340637 -10.16107178 16.06433105 C-29.91460229 16.09059521 -49.50580113 16.50118748 -69.1875 18.25 C-69.9118927 18.31316406 -70.6362854 18.37632812 -71.38262939 18.44140625 C-115.97936434 22.3549361 -158.7816515 29.87088784 -201.60229492 43.01977539 C-202.54260559 43.30527252 -203.48291626 43.59076965 -204.45172119 43.88491821 C-206.23768746 44.42748342 -208.02154123 44.97706478 -209.80291748 45.53451538 C-210.60070618 45.77570099 -211.39849487 46.0168866 -212.22045898 46.26538086 C-213.26531715 46.58798134 -213.26531715 46.58798134 -214.33128357 46.917099 C-216.1875 47.25 -216.1875 47.25 -219.1875 46.25 C-177.45027957 10.86409573 -102.13536132 5.26493786 -49.1875 1.25 C-47.93026123 1.15428711 -46.67302246 1.05857422 -45.37768555 0.95996094 C-30.27596267 -0.07934638 -15.13010175 0.004267 0 0 Z " fill="#AEC91E" transform="translate(619.1875,236.75)"/>
<path d="M0 0 C9.00311367 9.57141653 14.04610681 21.57770354 19.46885681 33.35845947 C20.38024911 35.33694844 21.29414795 37.31426654 22.20825195 39.29150391 C23.421046 41.91517044 24.62118014 44.54409981 25.81323242 47.17724609 C26.38690395 48.42689699 26.96086756 49.67641385 27.53515625 50.92578125 C28.034104 52.02317627 28.53305176 53.12057129 29.04711914 54.2512207 C31.58193232 59.42221744 34.85541545 64.18631986 38 69 C38.09276481 60.61146315 38.16379728 52.22314135 38.20724869 43.83421803 C38.22810547 39.9386919 38.2563873 36.04351723 38.30175781 32.14819336 C38.34528508 28.38749942 38.36915148 24.6271431 38.37950897 20.86621666 C38.38688812 19.43288548 38.4012982 17.99957235 38.42292023 16.56638527 C38.45203957 14.55591546 38.45363462 12.54510445 38.45410156 10.53442383 C38.46742523 8.81900139 38.46742523 8.81900139 38.48101807 7.06892395 C37.89266148 3.31517383 36.61768482 1.70261743 34 -1 C31.45682874 -2.80054838 31.45682874 -2.80054838 28.75 -4.25 C27.15418612 -5.1447627 25.56670447 -6.05519349 24 -7 C24 -7.33 24 -7.66 24 -8 C36.87 -8 49.74 -8 63 -8 C61.54340201 -5.08680402 59.6538411 -4.98288741 56.625 -3.9375 C55.64789063 -3.59589844 54.67078125 -3.25429688 53.6640625 -2.90234375 C51.77766911 -2.26340405 49.88945801 -1.62981934 48 -1 C46.81608777 1.37625345 46.81608777 1.37625345 46 4 C45.67 4.99 45.34 5.98 45 7 C44.88902955 9.41531307 44.83240781 11.8025754 44.82299805 14.21850586 C44.81642685 14.95069336 44.80985565 15.68288086 44.80308533 16.43725586 C44.78336221 18.86311961 44.77168664 21.28892121 44.76171875 23.71484375 C44.75764322 24.54662203 44.7535677 25.37840031 44.74936867 26.23538399 C44.72850356 30.64528275 44.7142086 35.05515044 44.70483398 39.46508789 C44.69382035 43.99401631 44.65948086 48.5224465 44.61966228 53.05119991 C44.59334802 56.55423311 44.5851287 60.05715082 44.58155251 63.56027412 C44.5767179 65.22783299 44.56519451 66.8953878 44.54651451 68.56284904 C44.34859518 87.41492187 49.7005325 100.89063748 62.73828125 114.8359375 C68.74326002 120.58163394 75.01234589 123.43535991 83.3125 124.375 C90.91691849 123.60166931 97.55170595 119.92504855 104 116 C102.67668081 121.62410655 98.61890583 124.05176223 94 127 C83.73834369 132.13082816 71.50638061 130.49779255 61 127 C57.73646982 125.28664665 54.87533329 123.2968971 52 121 C51.20078125 120.40703125 50.4015625 119.8140625 49.578125 119.203125 C46.57746124 116.63892143 44.1601732 113.7911235 41.75 110.6875 C41.03058228 109.76118774 41.03058228 109.76118774 40.29663086 108.81616211 C26.94595516 91.28606745 17.62678632 70.68832617 8.22851562 50.87524414 C4.58537818 43.20041161 0.88530828 35.55565538 -2.875 27.9375 C-3.4105249 26.83688232 -3.9460498 25.73626465 -4.49780273 24.60229492 C-8.6832549 15.46644793 -8.6832549 15.46644793 -16 9 C-16.09276894 18.93584837 -16.16379998 28.87159333 -16.20724869 38.80778694 C-16.22810426 43.42181851 -16.25638462 48.03555329 -16.30175781 52.64941406 C-16.34528828 57.10387963 -16.36915238 61.55806012 -16.37950897 66.01272202 C-16.38688745 67.71037151 -16.40129606 69.40800579 -16.42292023 71.1055336 C-16.4520508 73.48752543 -16.4559521 75.86834636 -16.45410156 78.25048828 C-16.46848267 78.94892349 -16.48286377 79.6473587 -16.49768066 80.36695862 C-16.45587383 85.35564 -15.11504379 88.15560467 -12 92 C-9.47730732 93.90725665 -9.47730732 93.90725665 -6.75 95.3125 C-5.15638361 96.18991018 -3.56963906 97.08038322 -2 98 C-2 98.33 -2 98.66 -2 99 C-14.87 99 -27.74 99 -41 99 C-37.17567969 96.45045313 -33.12731388 95.15340154 -28.8125 93.609375 C-25.16881978 91.52438021 -24.54004939 89.88383305 -23 86 C-22.69613275 83.18639569 -22.53918233 80.59048657 -22.5324707 77.77905273 C-22.51253807 76.57546616 -22.51253807 76.57546616 -22.49220276 75.3475647 C-22.45367873 72.70947251 -22.43794091 70.07193138 -22.42578125 67.43359375 C-22.41105393 65.5932656 -22.39617432 63.75293866 -22.38114929 61.91261292 C-22.35420612 58.06190487 -22.34062001 54.21138923 -22.33422852 50.3605957 C-22.32333365 45.42797044 -22.26152939 40.49737839 -22.1875124 35.56535244 C-22.13914648 31.76745188 -22.12670222 27.9700439 -22.12416649 24.17186165 C-22.11693734 22.35331259 -22.09647045 20.53476575 -22.06246376 18.71652031 C-21.4658938 9.22392825 -21.4658938 9.22392825 -24.73228455 0.77334595 C-31.13072342 -3.39712363 -38.3428441 -2.91880636 -45.59375 -1.48828125 C-51.59875009 0.24316044 -55.21538748 2.87692809 -58.375 8.40625 C-63.82524521 18.9351328 -64.99373739 31.14050004 -61.75 42.6875 C-57.88263121 53.17707563 -49.2466964 60.15998122 -40 66 C-40 66.33 -40 66.66 -40 67 C-48.49868808 67.55729102 -56.03830213 66.1004592 -62.875 60.75 C-63.57625 59.8425 -64.2775 58.935 -65 58 C-65.42796875 57.44699219 -65.8559375 56.89398438 -66.296875 56.32421875 C-73.36218282 46.28732559 -74.35735632 33.63867858 -72.49609375 21.79296875 C-70.58933214 13.13082314 -67.23927755 5.98346499 -60.19921875 0.37890625 C-43.3146392 -10.20769513 -16.19124023 -13.0755757 0 0 Z " fill="#AEC91D" transform="translate(228,306)"/>
<path d="M0 0 C0.66 0 1.32 0 2 0 C2 0.66 2 1.32 2 2 C20.15 2 38.3 2 57 2 C58.32 5.96 59.64 9.92 61 14 C62.18737651 16.5509288 63.42764992 19.07885531 64.75 21.5625 C68 27.68697479 68 27.68697479 68 31 C64.31707765 29.47313925 62.14956286 27.26131402 59.4375 24.375 C50.28050384 15.04216787 42.13053965 8.79546684 28.7578125 8.5859375 C28.07581787 8.56829346 27.39382324 8.55064941 26.69116211 8.5324707 C24.1693378 8.46990904 21.64713633 8.42337476 19.125 8.375 C13.47375 8.25125 7.8225 8.1275 2 8 C2.33 22.19 2.66 36.38 3 51 C8.62388069 46.62587057 14.17000938 42.24912619 19.640625 37.69921875 C24.33463423 34.31859952 28.25365639 33.68692181 34 33.625 C35.19625 33.59664063 36.3925 33.56828125 37.625 33.5390625 C41.65749434 34.08979668 43.20694494 35.07726738 46 38 C48.31527735 42.028041 48.08454062 45.26304784 47.625 49.8125 C47.51414062 50.97394531 47.40328125 52.13539063 47.2890625 53.33203125 C47.19367188 54.21246094 47.09828125 55.09289062 47 56 C46.34 56 45.68 56 45 56 C44.90203125 55.24074219 44.8040625 54.48148437 44.703125 53.69921875 C44.55359375 52.70535156 44.4040625 51.71148437 44.25 50.6875 C44.11078125 49.70136719 43.9715625 48.71523438 43.828125 47.69921875 C42.84260105 44.48696853 41.91708893 43.59064923 39 42 C31.16039757 41.68001623 24.8380388 46.89089105 18.984375 51.6328125 C9.74326849 60.24951992 3.81166648 71.87645778 2.69140625 84.46875 C2.57908699 90.23006729 2.63940569 95.68866281 5 101 C10.54304136 105.51655222 21.31824788 104.42599128 28 104 C41.41211739 102.21574989 53.352897 97.76884586 62 87 C63.45838997 84.8634587 64.81364672 82.71831765 66.08984375 80.46875 C66.39019531 79.9840625 66.69054687 79.499375 67 79 C67.33 79 67.66 79 68 79 C67.55264001 85.90310884 66.02297398 91.09288474 63.0625 97.3125 C62.52206055 98.4890918 62.52206055 98.4890918 61.97070312 99.68945312 C60.3704727 103.15809256 58.70864145 106.5827171 57 110 C27.63 110 -1.74 110 -32 110 C-32 109.34 -32 108.68 -32 108 C-31.38511719 107.68546875 -30.77023437 107.3709375 -30.13671875 107.046875 C-29.32847656 106.61890625 -28.52023437 106.1909375 -27.6875 105.75 C-26.88699219 105.33234375 -26.08648437 104.9146875 -25.26171875 104.484375 C-21.78009556 102.19937187 -20.30712857 99.92138572 -19 96 C-18.90318276 94.09586756 -18.86456527 92.18856387 -18.8581543 90.28198242 C-18.85111984 89.10613083 -18.84408539 87.93027924 -18.83683777 86.71879578 C-18.83267349 85.44389786 -18.82850922 84.16899994 -18.82421875 82.85546875 C-18.80695297 80.84291591 -18.7896627 78.83036297 -18.77101612 76.81782246 C-18.72563858 71.86303548 -18.68782974 66.90835198 -18.67407227 61.95336914 C-18.66385861 58.50015554 -18.63419267 55.04754216 -18.59275246 51.59456825 C-18.57478583 49.66632988 -18.57706399 47.73793592 -18.58000183 45.80961609 C-18.42746487 34.61256483 -16.06659326 24.03319653 -10.75 14.125 C-10.22921875 13.13757813 -9.7084375 12.15015625 -9.171875 11.1328125 C-8.78515625 10.42898438 -8.3984375 9.72515625 -8 9 C-25.83202733 7.94602586 -25.83202733 7.94602586 -41.875 14.5625 C-47.09015258 19.71003042 -49.16744289 26.44631734 -49.49609375 33.65625 C-49.49740114 35.60426414 -49.4776968 37.55240019 -49.4375 39.5 C-49.44458984 40.46808594 -49.45167969 41.43617188 -49.45898438 42.43359375 C-49.36803114 52.85823322 -46.89705004 62.01318738 -40 70 C-35.70543084 73.94177675 -31.32389985 77.55885698 -26 80 C-26 80.66 -26 81.32 -26 82 C-35.30875839 81.65200903 -43.0660342 80.42885248 -49.75 73.5 C-58.70411968 62.4010563 -60.13382661 48.72022878 -59 35 C-57.00176805 24.11819972 -52.45621506 15.67606265 -43.30859375 9.3125 C-31.33382599 2.5045102 -16.84947525 2.04698818 -3.4140625 1.24609375 C-1.05148745 1.26207044 -1.05148745 1.26207044 0 0 Z " fill="#AEC91D" transform="translate(378,298)"/>
<path d="M0 0 C1.63233833 -0.01052147 1.63233833 -0.01052147 3.2976532 -0.02125549 C6.79222797 -0.03867319 10.28663341 -0.04510812 13.78125 -0.046875 C14.97376373 -0.04754974 16.16627747 -0.04822449 17.39492798 -0.04891968 C34.54408034 -0.03347532 51.34314638 0.26513901 68.28125 3.203125 C69.38871582 3.39068359 70.49618164 3.57824219 71.63720703 3.77148438 C103.39681957 9.26090978 103.39681957 9.26090978 111.28125 13.203125 C111.28125 15.843125 111.28125 18.483125 111.28125 21.203125 C110.41371094 20.98398437 109.54617188 20.76484375 108.65234375 20.5390625 C88.28958866 15.51862739 67.22597285 10.79588816 46.28125 9.203125 C45.21189209 9.11844971 44.14253418 9.03377441 43.04077148 8.9465332 C33.80173588 8.26661464 24.60868955 7.99969814 15.34375 8.015625 C14.62859222 8.01656158 13.91343445 8.01749817 13.17660522 8.01846313 C-65.0275859 8.23835995 -142.79432393 35.66546217 -202.71875 86.203125 C-204.17861328 87.38455078 -204.17861328 87.38455078 -205.66796875 88.58984375 C-213.90858593 95.34371889 -221.48635963 102.75563597 -229.03125 110.265625 C-229.79893204 111.02554245 -229.79893204 111.02554245 -230.5821228 111.80081177 C-237.43173437 118.59576597 -243.73916526 125.61473518 -249.71875 133.203125 C-250.62572632 134.32908081 -250.62572632 134.32908081 -251.55102539 135.4777832 C-268.58032724 156.62984161 -282.69951147 179.86416697 -294.71875 204.203125 C-297.35875 204.203125 -299.99875 204.203125 -302.71875 204.203125 C-301.74805681 198.11460393 -298.8651549 193.17901019 -296.03125 187.765625 C-295.16536255 186.10793091 -295.16536255 186.10793091 -294.28198242 184.41674805 C-283.48344887 164.06862942 -270.6038717 144.78799917 -255.71875 127.203125 C-255.28369141 126.68314941 -254.84863281 126.16317383 -254.40039062 125.62744141 C-248.43903521 118.50366372 -242.298314 111.56472008 -235.96875 104.765625 C-235.36724121 104.1156958 -234.76573242 103.4657666 -234.14599609 102.79614258 C-230.46773024 98.88113674 -226.62559414 95.27979634 -222.54931641 91.78198242 C-220.22908485 89.78079044 -218.01160196 87.67858957 -215.78125 85.578125 C-208.48908708 78.93974221 -200.64324521 73.06074299 -192.71875 67.203125 C-192.03538574 66.69491211 -191.35202148 66.18669922 -190.64794922 65.66308594 C-174.67070488 53.84662241 -157.57770515 43.62847151 -139.62109375 35.11376953 C-137.70411282 34.19611824 -135.80501493 33.24766853 -133.90625 32.29296875 C-93.2592482 12.13809628 -45.45939761 0.19651718 0 0 Z " fill="#009DDF" transform="translate(493.71875,24.796875)"/>
<path d="M0 0 C2.73133901 0.00536034 5.46251362 0.00002595 8.19384766 -0.00634766 C17.26820512 -0.00944091 26.20020002 0.18781011 35.23681641 1.13037109 C35.23681641 4.76037109 35.23681641 8.39037109 35.23681641 12.13037109 C34.2703418 12.06108398 33.30386719 11.99179688 32.30810547 11.92041016 C-48.11778894 6.38229013 -127.040882 28.30813248 -189.01318359 81.06787109 C-204.17855833 94.32757184 -218.95324918 108.78138715 -230.76318359 125.13037109 C-231.50826172 126.09201172 -232.25333984 127.05365234 -233.02099609 128.04443359 C-241.09999321 138.48801523 -248.30634365 149.61642573 -254.76318359 161.13037109 C-258.72318359 161.13037109 -262.68318359 161.13037109 -266.76318359 161.13037109 C-259.75936523 143.62082518 -247.57335146 127.69479213 -235.76318359 113.13037109 C-235.3187793 112.58155273 -234.874375 112.03273438 -234.41650391 111.46728516 C-227.2991957 102.77610053 -219.55369416 94.71695662 -211.63818359 86.75537109 C-210.73229492 85.84021729 -209.82640625 84.92506348 -208.89306641 83.98217773 C-202.82456538 77.94165985 -196.48187012 72.43424572 -189.76318359 67.13037109 C-189.15522949 66.6427832 -188.54727539 66.15519531 -187.92089844 65.65283203 C-174.37020481 54.82424242 -159.82443007 45.69439637 -144.76318359 37.13037109 C-144.16103027 36.78264648 -143.55887695 36.43492188 -142.93847656 36.07666016 C-100.10398785 11.45913791 -49.0974445 -0.11456952 0 0 Z " fill="#AEC81D" transform="translate(505.76318359375,67.86962890625)"/>
<path d="M0 0 C7.22488928 7.27460183 9.97948795 16.47622851 10.078125 26.52734375 C9.99612586 37.51018227 6.90787902 44.43001531 -0.65234375 52.37890625 C-8.27583357 59.11280124 -16.07850738 63.2622563 -26.296875 62.71484375 C-28.515625 61.703125 -28.515625 61.703125 -30.296875 60.71484375 C-30.3961713 65.30462413 -30.46854248 69.89377163 -30.51660156 74.484375 C-30.53664722 76.04405619 -30.56389157 77.60366288 -30.59863281 79.16308594 C-30.64746626 81.41229689 -30.66991315 83.66050965 -30.6875 85.91015625 C-30.70814514 86.60102325 -30.72879028 87.29189026 -30.75006104 88.00369263 C-30.75316021 94.7763275 -27.33140451 98.72106021 -23.046875 103.58984375 C-22.52609375 104.18539062 -22.0053125 104.7809375 -21.46875 105.39453125 C-20.88867188 106.04808594 -20.88867188 106.04808594 -20.296875 106.71484375 C-20.626875 107.37484375 -20.956875 108.03484375 -21.296875 108.71484375 C-21.84214844 108.42609375 -22.38742187 108.13734375 -22.94921875 107.83984375 C-28.46462678 105.12456595 -33.14950225 103.50603264 -39.296875 104.71484375 C-42.81760772 106.08311622 -46.03421402 107.82056854 -49.296875 109.71484375 C-50.01875 110.11832031 -50.740625 110.52179688 -51.484375 110.9375 C-53.09865469 111.84553233 -54.69956045 112.77728956 -56.296875 113.71484375 C-55.75540946 109.85581116 -54.2088541 108.67259062 -51.296875 106.22290039 C-44.77921289 99.0615646 -46.19870205 89.69613043 -46.296875 80.5859375 C-46.28934899 78.62580255 -46.27830844 76.66567823 -46.26391602 74.70558167 C-46.23558264 69.57108923 -46.25470603 64.43784968 -46.28399658 59.30340576 C-46.3054493 54.05440246 -46.28163127 48.80562116 -46.26171875 43.55664062 C-46.22934101 33.27575959 -46.24713889 22.99563273 -46.296875 12.71484375 C-50.52981504 12.62103898 -53.43900534 12.89937568 -57.296875 14.71484375 C-53.66041727 6.80950087 -47.06462597 0.55634969 -39.296875 -3.28515625 C-35.859375 -3.78515625 -35.859375 -3.78515625 -33.296875 -3.28515625 C-30.80181538 -0.79009663 -30.93739124 0.38813263 -30.671875 3.83984375 C-30.59710937 4.74992187 -30.52234375 5.66 -30.4453125 6.59765625 C-30.39632812 7.29632813 -30.34734375 7.995 -30.296875 8.71484375 C-29.87277344 8.18375 -29.44867187 7.65265625 -29.01171875 7.10546875 C-21.27729673 -2.20983514 -11.08226147 -8.61121668 0 0 Z M-29.5078125 17.7421875 C-32.07949958 22.01523087 -31.88287767 25.69485854 -31.796875 30.58984375 C-31.81234375 31.46253906 -31.8278125 32.33523438 -31.84375 33.234375 C-31.80767954 39.23108848 -30.82120258 42.83257633 -27.296875 47.71484375 C-24.35563571 50.39419187 -21.10439992 51.58563976 -17.171875 52.21484375 C-13.3031163 51.54201615 -11.91078489 50.6819847 -9.296875 47.71484375 C-5.19298902 39.16234537 -4.84615332 28.67453486 -7.546875 19.65234375 C-8.88806976 16.2588091 -10.17016036 13.76954194 -13.296875 11.71484375 C-19.59530423 10.5696748 -24.97369197 13.58457521 -29.5078125 17.7421875 Z " fill="#AEC91E" transform="translate(735.296875,337.28515625)"/>
<path d="M0 0 C3.15095351 4.12662946 3.87150609 8.32289787 4.6875 13.3125 C4.88182617 14.42334961 4.88182617 14.42334961 5.08007812 15.55664062 C5.3958706 17.36952334 5.69920583 19.18456851 6 21 C6.556875 20.21496094 7.11375 19.42992187 7.6875 18.62109375 C19.80336947 1.94130723 19.80336947 1.94130723 28 0 C31 -0.4375 31 -0.4375 34 0 C36.57285724 2.172635 38.48996919 3.97993838 40 7 C40.09016377 8.60354452 40.11756075 10.21082222 40.11352539 11.81689453 C40.11344986 12.81778107 40.11337433 13.8186676 40.11329651 14.84988403 C40.10813522 15.93325043 40.10297394 17.01661682 40.09765625 18.1328125 C40.0962413 19.23978485 40.09482635 20.3467572 40.09336853 21.48727417 C40.08775772 25.03320993 40.07520337 28.57908323 40.0625 32.125 C40.05748639 34.52473867 40.05292325 36.92447833 40.04882812 39.32421875 C40.03778478 45.21616725 40.0210361 51.10807916 40 57 C45.67590063 55.44626231 45.67590063 55.44626231 51 53 C48.16779136 58.90043466 44.90771915 62.95500501 39 66 C35.84363846 66.81379487 34.35200214 66.6044594 31 66 C27.78045355 63.46546343 26.29567565 61.88702695 25 58 C24.88140122 55.08753713 24.81474712 52.19462941 24.7890625 49.28125 C24.76100498 47.52733424 24.73234059 45.7734281 24.703125 44.01953125 C24.66178822 41.25439613 24.62489972 38.48944286 24.59863281 35.72412109 C24.57108479 33.0552876 24.52522805 30.38727062 24.4765625 27.71875 C24.47330963 26.89056763 24.47005676 26.06238525 24.46670532 25.20910645 C24.51372707 20.88238333 24.51372707 20.88238333 22.47396851 17.25793457 C21.9875589 16.84281616 21.50114929 16.42769775 21 16 C15.63151578 17.02256842 13.54462089 19.31394284 10.4921875 23.5390625 C9.99976563 24.35117187 9.50734375 25.16328125 9 26 C8.64711914 26.53761963 8.29423828 27.07523926 7.93066406 27.62915039 C4.33505 33.7254081 4.66216641 39.27458022 5 46.1875 C5.52715712 57.09306301 5.52715712 57.09306301 3.18359375 61.125 C-1.2200807 64.90633048 -4.15530588 66 -10 66 C-10.33 49.17 -10.66 32.34 -11 15 C-15.76625167 13.80843708 -16.87879351 14.6584054 -21 17 C-18.53041016 9.7550298 -8.69945547 -2.11608376 0 0 Z " fill="#AEC91E" transform="translate(465,334)"/>
<path d="M0 0 C5.94 0 11.88 0 18 0 C18 1.98 18 3.96 18 6 C16.68 6 15.36 6 14 6 C14.33 11.94 14.66 17.88 15 24 C20.9794353 22.77756788 20.9794353 22.77756788 22.375 19.375 C22.58125 18.59125 22.7875 17.8075 23 17 C25.875 17.3125 25.875 17.3125 29 18 C29.66 18.99 30.32 19.98 31 21 C33.69559598 14.01062861 36.38475141 7.01987779 39 0 C42.63 0 46.26 0 50 0 C51.67545741 3.99637792 53.33966317 7.99731828 55 12 C55.40347656 12.96292969 55.80695313 13.92585938 56.22265625 14.91796875 C56.76212891 16.22701172 56.76212891 16.22701172 57.3125 17.5625 C57.63863281 18.34753906 57.96476562 19.13257813 58.30078125 19.94140625 C59 22 59 22 59 25 C60.66611905 25.042721 62.33382885 25.04063832 64 25 C66.05014613 22.94985387 65.23057975 18.87115412 65.25 16.0625 C65.270625 15.32064453 65.29125 14.57878906 65.3125 13.81445312 C65.36462739 11.40532465 65.36462739 11.40532465 65 8 C64.01 7.34 63.02 6.68 62 6 C61.8125 2.875 61.8125 2.875 62 0 C66.56216465 -0.14532035 71.12373362 -0.23408477 75.6875 -0.3125 C77.62786133 -0.3753418 77.62786133 -0.3753418 79.60742188 -0.43945312 C80.85458984 -0.45556641 82.10175781 -0.47167969 83.38671875 -0.48828125 C85.10701294 -0.52755737 85.10701294 -0.52755737 86.86206055 -0.56762695 C90.98393534 0.17798566 92.44638137 1.74803642 95 5 C95.51486531 9.19247465 95.49847388 12.50213656 93 16 C90.875 17.75 90.875 17.75 89 19 C91.80804268 21.96404505 94.18315774 24.44499019 98 26 C98 27.98 98 29.96 98 32 C93.54856612 32.54220473 89.43196632 32.77481929 85 32 C81.83814914 29.44740944 79.9744482 26.5175554 78 23 C77.01 21.515 77.01 21.515 76 20 C76 21.65 76 23.3 76 25 C77.485 25.495 77.485 25.495 79 26 C79 27.98 79 29.96 79 32 C68.11 32 57.22 32 46 32 C46 26 46 26 47 24 C44.36 23.67 41.72 23.34 39 23 C39 23.99 39 24.98 39 26 C39.99 26 40.98 26 42 26 C42 27.98 42 29.96 42 32 C28.14 32 14.28 32 0 32 C0 30.02 0 28.04 0 26 C0.99 25.34 1.98 24.68 3 24 C3.41428346 22.06923522 3.41428346 22.06923522 3.29296875 19.8671875 C3.28330078 19.06152344 3.27363281 18.25585938 3.26367188 17.42578125 C3.23853516 16.58402344 3.21339844 15.74226563 3.1875 14.875 C3.17396484 14.02550781 3.16042969 13.17601562 3.14648438 12.30078125 C3.11108219 10.20025163 3.05727401 8.10004707 3 6 C2.01 6 1.02 6 0 6 C0 4.02 0 2.04 0 0 Z M75 7 C75 8.65 75 10.3 75 12 C79.65052872 12.26932521 79.65052872 12.26932521 84 11 C84 10.01 84 9.02 84 8 C81.03 7.67 78.06 7.34 75 7 Z M43 13 C44 16 44 16 44 16 Z M29 23 C30 25 30 25 30 25 Z " fill="#00A1E7" transform="translate(235,469)"/>
<path d="M0 0 C2.29046109 1.86697624 4.05769645 3.75101694 6 6 C4.64095865 9.05171038 3.12433343 11.1033729 0.7277832 13.41992188 C-0.26785896 14.39112976 -0.26785896 14.39112976 -1.28361511 15.38195801 C-1.99826431 16.07059937 -2.71291351 16.75924072 -3.44921875 17.46875 C-4.95159223 18.94097741 -6.45353249 20.41364702 -7.95507812 21.88671875 C-10.32705099 24.20275003 -12.70268244 26.51467713 -15.08618164 28.81884766 C-17.38490778 31.04531661 -19.66793018 33.28693708 -21.94921875 35.53125 C-22.66994064 36.21989136 -23.39066254 36.90853271 -24.13322449 37.61804199 C-24.78752945 38.26551392 -25.44183441 38.91298584 -26.1159668 39.58007812 C-26.98961128 40.42801941 -26.98961128 40.42801941 -27.88090515 41.29309082 C-29.22542389 42.95647968 -29.22542389 42.95647968 -28.80134583 45.10827637 C-27.52104706 48.13065616 -26.00610351 48.71166993 -23 50 C-14.67751362 52.27115471 -8.46754506 49.85311685 -1 46 C-0.01 45.34 0.98 44.68 2 44 C2.99 44.33 3.98 44.66 5 45 C-7.63852298 59.77592025 -7.63852298 59.77592025 -18 62 C-37.0595411 63.18635919 -37.0595411 63.18635919 -43 58 C-48.94145759 52.1970738 -50.00319015 44.63906086 -50.25 36.625 C-49.90897011 24.56106749 -47.35851225 13.75660586 -38.98046875 4.7890625 C-28.21070338 -4.93983797 -12.67552684 -7.07770534 0 0 Z M-29.609375 9.5078125 C-34.40160445 14.65003623 -35.28594609 21.09457511 -35.234375 27.86328125 C-34.83203494 31.5312815 -33.44794365 34.62146483 -32 38 C-25.43149828 32.82905184 -17.37157788 26.15944016 -15.1640625 17.85546875 C-14.90880077 13.41269911 -16.79545676 10.57114335 -19.4375 7.125 C-23.47023959 4.2214275 -26.45850149 6.69112254 -29.609375 9.5078125 Z " fill="#AEC91E" transform="translate(954,338)"/>
<path d="M0 0 C1.3413674 1.09439266 2.67763346 2.19522271 4 3.3125 C2.38316458 7.698034 -1.05605693 10.33982298 -4.4375 13.375 C-10.87070025 19.29376894 -17.23514878 25.27805689 -23.5 31.375 C-24.3552124 32.18396729 -25.2104248 32.99293457 -26.09155273 33.82641602 C-26.87602783 34.59655029 -27.66050293 35.36668457 -28.46875 36.16015625 C-29.17451172 36.84086182 -29.88027344 37.52156738 -30.60742188 38.22290039 C-32.2729159 40.26723691 -32.2729159 40.26723691 -31.84179688 42.99389648 C-31.21431331 45.45084255 -31.21431331 45.45084255 -29.0625 46.5625 C-20.19464454 48.73421971 -14.23196378 48.54566287 -6 44.3125 C-5.030625 43.714375 -4.06125 43.11625 -3.0625 42.5 C-2.0415625 41.9121875 -2.0415625 41.9121875 -1 41.3125 C-0.01 41.6425 0.98 41.9725 2 42.3125 C-11.79398134 58.42111766 -11.79398134 58.42111766 -22.04077148 59.53417969 C-24.32240951 59.65260118 -26.59040121 59.68368598 -28.875 59.6875 C-29.63941406 59.71199219 -30.40382813 59.73648438 -31.19140625 59.76171875 C-36.91562326 59.79087435 -41.2532861 58.57357967 -46 55.3125 C-47.83984375 53.27734375 -47.83984375 53.27734375 -48.9375 51.25 C-49.50791016 50.24259766 -49.50791016 50.24259766 -50.08984375 49.21484375 C-54.43940247 40.12370599 -53.57643218 24.24018542 -50.375 14.875 C-49.25390625 12.4609375 -49.25390625 12.4609375 -48 10.3125 C-47.57589844 9.58289063 -47.15179687 8.85328125 -46.71484375 8.1015625 C-41.74254598 0.65004106 -33.95575753 -4.33391874 -25.25 -6.3125 C-15.03597792 -7.49104101 -8.25063838 -6.3684615 0 0 Z M-32.609375 6.7734375 C-37.13636451 11.783645 -38.20296259 18.76937279 -38 25.3125 C-37.26249553 28.75575336 -36.2402644 32.01914255 -35 35.3125 C-28.20915028 29.96651192 -20.19811791 23.31988067 -18.12890625 14.671875 C-17.9622356 10.32833681 -19.30033306 8.62923367 -22 5.3125 C-22.66 4.6525 -23.32 3.9925 -24 3.3125 C-28.27986621 3.3125 -29.5076873 3.9693865 -32.609375 6.7734375 Z " fill="#ADC81E" transform="translate(614,340.6875)"/>
<path d="M0 0 C24.09 0 48.18 0 73 0 C74.32 2.64 75.64 5.28 77 8 C76.67 8.99 76.34 9.98 76 11 C74.0085944 11.38133299 72.00720923 11.71325582 70 12 C69.505 11.505 69.505 11.505 69 11 C69 14.3 69 17.6 69 21 C69.99 19.68 70.98 18.36 72 17 C73.98 17.66 75.96 18.32 78 19 C77.71517632 20.41805831 77.42181856 21.83440379 77.125 23.25 C76.96257812 24.03890625 76.80015625 24.8278125 76.6328125 25.640625 C76 28 76 28 74 32 C64.1 32 54.2 32 44 32 C44 30.02 44 28.04 44 26 C44.99 25.67 45.98 25.34 47 25 C47 19.06 47 13.12 47 7 C45.35 7 43.7 7 42 7 C41.90203125 7.55945313 41.8040625 8.11890625 41.703125 8.6953125 C37.8972332 29.1027668 37.8972332 29.1027668 35 32 C33.31391034 32.07205511 31.62499341 32.08386068 29.9375 32.0625 C29.01839844 32.05347656 28.09929688 32.04445313 27.15234375 32.03515625 C26.44207031 32.02355469 25.73179687 32.01195312 25 32 C24.34 30.02 23.68 28.04 23 26 C22.34 27.98 21.68 29.96 21 32 C17.7 32 14.4 32 11 32 C10.01321102 29.14827038 9.03543182 26.29395658 8.0625 23.4375 C7.78470703 22.63763672 7.50691406 21.83777344 7.22070312 21.01367188 C5.6315549 16.32281264 4.52252019 11.92756382 4 7 C2.68 6.67 1.36 6.34 0 6 C0 4.02 0 2.04 0 0 Z M15 6 C15.60825035 10.34464536 16.26167392 14.67551867 17 19 C18.99789249 16.00316126 19.74756206 14.5341312 20 11 C18.80873468 8.1798125 18.80873468 8.1798125 17 6 C16.34 6 15.68 6 15 6 Z M29 6 C28.69504515 10.42664564 28.69504515 10.42664564 30.5 14.375 C30.995 14.91125 31.49 15.4475 32 16 C32.66 13.03 33.32 10.06 34 7 C32.35 6.67 30.7 6.34 29 6 Z M58 7 C58 8.65 58 10.3 58 12 C58.99 11.34 59.98 10.68 61 10 C61 9.01 61 8.02 61 7 C60.01 7 59.02 7 58 7 Z M58 18 C58 19.98 58 21.96 58 24 C60.91482778 24.80967438 62.46113217 25.21845993 65.3125 24.0625 C65.869375 23.711875 66.42625 23.36125 67 23 C65.02 23 63.04 23 61 23 C60.67 21.35 60.34 19.7 60 18 C59.34 18 58.68 18 58 18 Z " fill="#00A2E8" transform="translate(628,469)"/>
<path d="M0 0 C1.83691406 -0.00193359 1.83691406 -0.00193359 3.7109375 -0.00390625 C5.61746094 0.00189453 5.61746094 0.00189453 7.5625 0.0078125 C8.83351563 0.00394531 10.10453125 0.00007812 11.4140625 -0.00390625 C12.63867188 -0.00261719 13.86328125 -0.00132812 15.125 0 C16.24003906 0.00112793 17.35507812 0.00225586 18.50390625 0.00341797 C21.30716698 0.12201058 23.8362424 0.49376655 26.5625 1.1328125 C27.83679245 5.05911439 27.74213585 9.02677231 27.765625 13.109375 C27.77132507 13.87583344 27.77702515 14.64229187 27.78289795 15.43197632 C27.79232099 17.04741037 27.79887119 18.6628634 27.80273438 20.27832031 C27.81249363 22.75619404 27.84356233 25.23325637 27.875 27.7109375 C27.88152535 29.28124508 27.88677766 30.85155858 27.890625 32.421875 C27.9029718 33.16458649 27.9153186 33.90729797 27.92803955 34.67251587 C27.91894531 36.75634766 27.91894531 36.75634766 27.5625 40.1328125 C18.75413894 46.00505321 2.53002326 43.44377456 -7.6875 42.8828125 C-8.55890625 42.83640625 -9.4303125 42.79 -10.328125 42.7421875 C-12.4375 42.1328125 -12.4375 42.1328125 -13.6953125 40.3203125 C-17.03647138 30.47268634 -17.25541816 13.15685727 -14.4375 3.1328125 C-9.75286801 0.00972451 -5.53734202 0.00560136 0 0 Z " fill="#009FE2" transform="translate(586.4375,180.8671875)"/>
<path d="M0 0 C1.07954201 0.00280975 1.07954201 0.00280975 2.18089294 0.00567627 C3.69803521 0.01238233 5.2151606 0.02626817 6.73217773 0.046875 C9.05403726 0.07806379 11.37521723 0.08785211 13.69726562 0.09375 C15.17318536 0.1029195 16.6490982 0.11329511 18.125 0.125 C18.81880264 0.12924988 19.51260529 0.13349976 20.22743225 0.13787842 C23.25165687 0.18274829 25.60362715 0.36396947 28.49609375 1.328125 C30.97547189 4.76777842 30.74024213 8.162105 30.7265625 12.2890625 C30.72610428 12.95725006 30.72564606 13.62543762 30.72517395 14.31387329 C30.72216039 15.72424093 30.71430091 17.1346055 30.7019043 18.54492188 C30.68371423 20.68892396 30.68139441 22.83249146 30.68164062 24.9765625 C30.66059468 30.85991066 30.61028944 36.52763891 29.49609375 42.328125 C22.26544003 43.13634178 15.07823486 43.4360015 7.80859375 43.453125 C7.02572998 43.45763672 6.24286621 43.46214844 5.4362793 43.46679688 C-5.79032177 43.43852718 -5.79032177 43.43852718 -10.50390625 42.328125 C-12.10216393 39.13160963 -11.7093229 35.65745947 -11.7421875 32.14453125 C-11.75025925 31.3332225 -11.75833099 30.52191376 -11.76664734 29.6860199 C-11.78048462 27.96868018 -11.79120837 26.251313 -11.79907227 24.53393555 C-11.81631684 21.90425874 -11.86020763 19.27582905 -11.90429688 16.64648438 C-11.91442107 14.97917592 -11.92293803 13.31185678 -11.9296875 11.64453125 C-11.94719559 10.85695938 -11.96470367 10.06938751 -11.98274231 9.25794983 C-11.96998695 6.05736476 -11.95248324 3.90389255 -9.94628906 1.32885742 C-6.61900557 -0.03445076 -3.5355702 -0.06310255 0 0 Z " fill="#009FE2" transform="translate(630.50390625,180.671875)"/>
<path d="M0 0 C1.21880859 -0.020625 2.43761719 -0.04125 3.69335938 -0.0625 C4.85544922 -0.06765625 6.01753906 -0.0728125 7.21484375 -0.078125 C8.28726318 -0.0874707 9.35968262 -0.09681641 10.46459961 -0.10644531 C11.7505603 0.06999512 11.7505603 0.06999512 13.0625 0.25 C14.0525 1.735 14.0525 1.735 15.0625 3.25 C15.3925 2.59 15.7225 1.93 16.0625 1.25 C22.0025 1.25 27.9425 1.25 34.0625 1.25 C34.0625 3.23 34.0625 5.21 34.0625 7.25 C33.0725 7.58 32.0825 7.91 31.0625 8.25 C31.0625 14.19 31.0625 20.13 31.0625 26.25 C32.5475 26.745 32.5475 26.745 34.0625 27.25 C34.0625 29.23 34.0625 31.21 34.0625 33.25 C28.1225 33.25 22.1825 33.25 16.0625 33.25 C16.0625 31.27 16.0625 29.29 16.0625 27.25 C17.0525 26.92 18.0425 26.59 19.0625 26.25 C19.0625 20.31 19.0625 14.37 19.0625 8.25 C18.4025 8.25 17.7425 8.25 17.0625 8.25 C17.0625 9.9 17.0625 11.55 17.0625 13.25 C14.25 13.9375 14.25 13.9375 11.0625 14.25 C9.1875 12.9375 9.1875 12.9375 8.0625 11.25 C8.0625 10.59 8.0625 9.93 8.0625 9.25 C7.4025 9.25 6.7425 9.25 6.0625 9.25 C6.0625 14.86 6.0625 20.47 6.0625 26.25 C7.0525 26.58 8.0425 26.91 9.0625 27.25 C9.0625 29.23 9.0625 31.21 9.0625 33.25 C3.4525 33.25 -2.1575 33.25 -7.9375 33.25 C-7.9375 31.27 -7.9375 29.29 -7.9375 27.25 C-7.2775 26.92 -6.6175 26.59 -5.9375 26.25 C-5.6075 20.31 -5.2775 14.37 -4.9375 8.25 C-6.5875 9.9 -8.2375 11.55 -9.9375 13.25 C-13.07099732 14.29449911 -13.92718256 14.18423645 -16.9375 13.25 C-16.6075 11.27 -16.2775 9.29 -15.9375 7.25 C-16.5975 7.58 -17.2575 7.91 -17.9375 8.25 C-17.94007813 9.46816406 -17.94265625 10.68632812 -17.9453125 11.94140625 C-18.19100393 26.57672933 -18.19100393 26.57672933 -21.0625 30.875 C-25.23097333 34.60522308 -31.11501036 34.00557901 -36.37890625 33.984375 C-40.69700555 33.0932634 -42.19139724 31.62509837 -44.9375 28.25 C-46.05573815 26.01352369 -46.13146061 24.60108471 -46.25390625 22.1171875 C-46.29580078 21.31152344 -46.33769531 20.50585938 -46.38085938 19.67578125 C-46.42017578 18.83402344 -46.45949219 17.99226563 -46.5 17.125 C-46.54318359 16.27550781 -46.58636719 15.42601562 -46.63085938 14.55078125 C-46.73704236 12.45071777 -46.83778497 10.35038052 -46.9375 8.25 C-47.9275 7.92 -48.9175 7.59 -49.9375 7.25 C-49.9375 5.27 -49.9375 3.29 -49.9375 1.25 C-43.9975 1.25 -38.0575 1.25 -31.9375 1.25 C-31.9375 3.23 -31.9375 5.21 -31.9375 7.25 C-32.9275 7.58 -33.9175 7.91 -34.9375 8.25 C-34.96459444 10.33326131 -34.98393873 12.41662441 -35 14.5 C-35.01160156 15.66015625 -35.02320313 16.8203125 -35.03515625 18.015625 C-34.95532092 20.65977128 -34.72393778 22.74826091 -33.9375 25.25 C-32.2875 25.25 -30.6375 25.25 -28.9375 25.25 C-27.40483418 22.18466836 -27.83473529 18.98245728 -27.875 15.625 C-27.87951172 14.91859375 -27.88402344 14.2121875 -27.88867188 13.484375 C-27.90046125 11.73954725 -27.91839676 9.994763 -27.9375 8.25 C-28.9275 7.92 -29.9175 7.59 -30.9375 7.25 C-30.9375 5.27 -30.9375 3.29 -30.9375 1.25 C-29.72191406 1.26160156 -28.50632812 1.27320313 -27.25390625 1.28515625 C-25.66927236 1.29453278 -24.08463682 1.30363313 -22.5 1.3125 C-21.69755859 1.32087891 -20.89511719 1.32925781 -20.06835938 1.33789062 C-18.02454779 1.3465143 -15.98066098 1.3022815 -13.9375 1.25 C-11.28035458 -1.40714542 -3.57695491 0.01508468 0 0 Z " fill="#00A2E7" transform="translate(899.9375,467.75)"/>
<path d="M0 0 C4.79742723 9.59485446 3.29105563 29.9860393 0 40 C-3.65653744 42.43769163 -6.39789852 42.28943265 -10.625 42.265625 C-11.36830566 42.26753845 -12.11161133 42.2694519 -12.87744141 42.27142334 C-14.44759459 42.27278317 -16.0177591 42.26910079 -17.58789062 42.26074219 C-19.99114233 42.25003945 -22.39364654 42.2606439 -24.796875 42.2734375 C-26.32291832 42.27211587 -27.84896117 42.2695534 -29.375 42.265625 C-30.45322021 42.27169769 -30.45322021 42.27169769 -31.55322266 42.27789307 C-35.25350434 42.24311682 -36.83766401 42.10822399 -40 40 C-42.01182586 34.70572142 -42.20149772 29.56247057 -42.25 23.9375 C-42.25926514 23.26509277 -42.26853027 22.59268555 -42.27807617 21.89990234 C-42.24928809 17.28139052 -41.76686744 13.27905065 -40 9 C-28.37329146 -0.0326275 -13.98131779 -0.4425505 0 0 Z " fill="#009FE1" transform="translate(613,134)"/>
<path d="M0 0 C5.28 0 10.56 0 16 0 C16.33 0.66 16.66 1.32 17 2 C17.33 1.34 17.66 0.68 18 0 C32.52 0 47.04 0 62 0 C65.375 6.75 65.375 6.75 65 11 C62.69 11.33 60.38 11.66 58 12 C57.505 11.01 57.505 11.01 57 10 C57 13.63 57 17.26 57 21 C57.99 20.67 58.98 20.34 60 20 C60 19.01 60 18.02 60 17 C64.875 17.875 64.875 17.875 66 19 C65.57898572 24.05217134 64.92518894 27.18702766 63 32 C53.1 32 43.2 32 33 32 C33 30.02 33 28.04 33 26 C33.99 25.67 34.98 25.34 36 25 C36 19.06 36 13.12 36 7 C34.02 6.67 32.04 6.34 30 6 C30.00785522 7.1281311 30.00785522 7.1281311 30.01586914 8.27905273 C30.03657227 11.66519342 30.04963877 15.05132084 30.0625 18.4375 C30.07087891 19.62150391 30.07925781 20.80550781 30.08789062 22.02539062 C30.09272461 23.71245117 30.09272461 23.71245117 30.09765625 25.43359375 C30.10551147 26.99678345 30.10551147 26.99678345 30.11352539 28.59155273 C30 31 30 31 29 32 C25.99668982 32.14193337 23.00782866 32.04236378 20 32 C17.36 26.72 14.72 21.44 12 16 C12 18.64 12 21.28 12 24 C12.99 24.66 13.98 25.32 15 26 C15 27.98 15 29.96 15 32 C10.05 32 5.1 32 0 32 C0 30.02 0 28.04 0 26 C0.99 25.67 1.98 25.34 3 25 C3 19.06 3 13.12 3 7 C2.01 6.67 1.02 6.34 0 6 C0 4.02 0 2.04 0 0 Z M18 6 C18.99 7.32 19.98 8.64 21 10 C21 8.68 21 7.36 21 6 C20.01 6 19.02 6 18 6 Z M47 7 C47 8.65 47 10.3 47 12 C47.66 11.67 48.32 11.34 49 11 C49 9.68 49 8.36 49 7 C48.34 7 47.68 7 47 7 Z M47 18 C47 19.98 47 21.96 47 24 C50.32534757 25.10844919 52.62182575 24.84454356 56 24 C56 23.67 56 23.34 56 23 C53.69 23 51.38 23 49 23 C48.67 21.35 48.34 19.7 48 18 C47.67 18 47.34 18 47 18 Z " fill="#00A2E8" transform="translate(380,469)"/>
<path d="M0 0 C17.03224156 4.56837437 17.03224156 4.56837437 21.31420898 8.8503418 C21.41403295 10.71799165 21.44501655 12.58940218 21.44702148 14.4597168 C21.44895508 16.18061523 21.44895508 16.18061523 21.45092773 17.9362793 C21.44706055 19.14541992 21.44319336 20.35456055 21.43920898 21.6003418 C21.44500977 23.39084961 21.44500977 23.39084961 21.45092773 25.2175293 C21.44963867 26.36995117 21.44834961 27.52237305 21.44702148 28.7097168 C21.44589355 29.76642578 21.44476562 30.82313477 21.44360352 31.91186523 C21.32224936 34.66774938 20.93743132 37.16807209 20.31420898 39.8503418 C16.86105194 40.90471692 13.67993997 40.97946674 10.07983398 40.9831543 C8.86553711 40.98444336 7.65124023 40.98573242 6.40014648 40.98706055 C5.13428711 40.98319336 3.86842773 40.97932617 2.56420898 40.9753418 C1.31381836 40.97920898 0.06342773 40.98307617 -1.22485352 40.98706055 C-13.91284879 40.97364829 -13.91284879 40.97364829 -19.68579102 39.8503418 C-21.28450671 36.65291041 -20.87000783 33.17975064 -20.88891602 29.66674805 C-20.89461609 28.8554393 -20.90031616 28.04413055 -20.90618896 27.20823669 C-20.91564088 25.49088853 -20.92217371 23.7735222 -20.92602539 22.05615234 C-20.93573989 19.42668131 -20.96676419 16.79798897 -20.99829102 14.16870117 C-21.00482019 12.50138811 -21.010071 10.83406946 -21.01391602 9.16674805 C-21.02626282 8.37917618 -21.03860962 7.59160431 -21.05133057 6.78016663 C-21.02926953 1.3839114 -21.02926953 1.3839114 -19.3972168 -1.15136719 C-13.89694723 -4.359727 -5.65678724 -1.44016536 0 0 Z " fill="#009FE2" transform="translate(639.685791015625,135.149658203125)"/>
<path d="M0 0 C2.40348342 7.54559734 2.33203972 14.87939969 2.3125 22.75 C2.32861328 24.06355469 2.34472656 25.37710938 2.36132812 26.73046875 C2.36197266 27.98988281 2.36261719 29.24929687 2.36328125 30.546875 C2.36626221 31.68995117 2.36924316 32.83302734 2.37231445 34.01074219 C1.96244597 37.30151577 1.32446849 38.67276511 -1 41 C-5.88440875 42.38306656 -11.01684746 42.15431756 -16.0625 42.125 C-17.31135986 42.11992432 -17.31135986 42.11992432 -18.58544922 42.11474609 C-33.56022558 41.99074929 -33.56022558 41.99074929 -39 41 C-42.14016804 34.71966393 -39.38697904 25.95771403 -37.8125 19.5 C-37.51762695 18.17162109 -37.51762695 18.17162109 -37.21679688 16.81640625 C-35.75377233 10.685208 -33.64111939 5.19242297 -30 0 C-22.3446948 -3.8276526 -8.41266587 -0.71597156 0 0 Z " fill="#009FE2" transform="translate(565,182)"/>
<path d="M0 0 C2.43818936 3.65728405 2.6716692 6.93287895 3.125 11.1875 C3.21136719 11.93708984 3.29773438 12.68667969 3.38671875 13.45898438 C3.59838382 15.30517412 3.80015464 17.15249344 4 19 C4.556875 18.28714844 5.11375 17.57429688 5.6875 16.83984375 C19.22720478 -0.1534006 19.22720478 -0.1534006 29 -1.375 C32.77680432 -0.90289946 34.33483567 0.33483567 37 3 C38.37056118 7.11168354 38.95076514 10.76454245 37.19921875 14.8828125 C32.92367016 22.14096027 26.90512571 29.16171464 20 34 C20.2475 32.824375 20.2475 32.824375 20.5 31.625 C21.71022815 23.63934693 21.71022815 23.63934693 20 16 C15.09368806 16.42054102 13.21564703 18.39220089 10 22 C9.48937012 22.43481689 8.97874023 22.86963379 8.45263672 23.31762695 C5.52580256 26.05561857 4.13966057 28.07263625 3.53393555 32.09472656 C3.40366873 37.02630531 3.52818989 41.93142926 3.67773438 46.86132812 C3.71157308 55.95427201 3.71157308 55.95427201 1.54638672 59.13623047 C-0.24186513 60.70804235 -1.90381165 61.87831996 -4 63 C-4.63349365 63.37648682 -5.2669873 63.75297363 -5.91967773 64.14086914 C-8 65 -8 65 -13 65 C-13 47.84 -13 30.68 -13 13 C-17.36568695 13.87313739 -19.42547265 14.65102489 -23 17 C-23.33 16.34 -23.66 15.68 -24 15 C-9.28378197 -2.62367751 -9.28378197 -2.62367751 0 0 Z " fill="#AEC91E" transform="translate(641,335)"/>
<path d="M0 0 C1.20140625 -0.01611328 2.4028125 -0.03222656 3.640625 -0.04882812 C4.79046875 -0.04947266 5.9403125 -0.05011719 7.125 -0.05078125 C8.17945313 -0.05376221 9.23390625 -0.05674316 10.3203125 -0.05981445 C13 0.3125 13 0.3125 14.78710938 1.68139648 C21.68556258 10.95848301 24.20128684 24.45094105 24.07421875 35.7265625 C24.06350342 36.96615723 24.05278809 38.20575195 24.04174805 39.48291016 C24.02797119 40.4166748 24.01419434 41.35043945 24 42.3125 C19.87431757 42.48159163 15.74839266 42.64197509 11.62207031 42.79467773 C10.22158959 42.84768719 8.82119312 42.90297807 7.42089844 42.96069336 C-7.83629461 43.58643416 -7.83629461 43.58643416 -14 42.3125 C-17.44259717 38.86990283 -17.12760063 35.21673586 -17.1328125 30.515625 C-17.13410156 29.3915625 -17.13539063 28.2675 -17.13671875 27.109375 C-17.13285156 25.93890625 -17.12898437 24.7684375 -17.125 23.5625 C-17.12886719 22.4075 -17.13273438 21.2525 -17.13671875 20.0625 C-17.12267264 7.75810752 -17.12267264 7.75810752 -16 2.3125 C-11.12873683 -0.93500878 -5.72409973 -0.01535434 0 0 Z " fill="#009FE1" transform="translate(682,180.6875)"/>
<path d="M0 0 C3 1.1875 3 1.1875 4.1484375 2.74609375 C5.37156224 6.25275873 5.46909813 9.76081433 5.625 13.4375 C5.66367187 14.18257813 5.70234375 14.92765625 5.7421875 15.6953125 C5.83605108 17.5256524 5.91909718 19.35654143 6 21.1875 C6.74443359 20.22650391 6.74443359 20.22650391 7.50390625 19.24609375 C21.70528164 1.16426664 21.70528164 1.16426664 31.625 -0.375 C35.90479177 0.33829863 37.31023412 1.86484804 40 5.1875 C41.81841037 8.82432075 41.08106703 12.43162794 40 16.1875 C35.84871221 23.4780701 30.11672183 29.51001085 24 35.1875 C22.86174981 31.77274944 23.29450959 30.6365642 24 27.1875 C24.12782974 23.48043762 24.17554079 20.71412236 23 17.1875 C19.47637736 17.09940943 17.51211554 17.7110686 14.92578125 20.1171875 C12.87818417 22.42593836 10.91026666 24.76402737 9 27.1875 C8.47051758 27.76612793 7.94103516 28.34475586 7.39550781 28.94091797 C5.53168933 31.94141791 5.72107535 33.94582856 5.83984375 37.45703125 C5.84951172 38.67583984 5.85917969 39.89464844 5.86914062 41.15039062 C5.91451677 43.70571567 5.98720538 46.2607093 6.08789062 48.81445312 C6.09269169 57.92207868 6.09269169 57.92207868 2.88720703 61.63427734 C-1.74101167 65.04386624 -4.12288111 66.1875 -10 66.1875 C-10 49.0275 -10 31.8675 -10 14.1875 C-15.73561691 14.87241908 -15.73561691 14.87241908 -19 18.1875 C-19.66 18.1875 -20.32 18.1875 -21 18.1875 C-18.44691141 10.29613526 -9.19276697 -0.84619612 0 0 Z " fill="#AEC91E" transform="translate(766,333.8125)"/>
<path d="M0 0 C0.93134766 0.02255859 1.86269531 0.04511719 2.82226562 0.06835938 C5.1123396 0.12707922 7.39907875 0.20913142 9.6875 0.3125 C10.19583591 1.55913331 10.69381145 2.80999387 11.1875 4.0625 C11.4659375 4.75859375 11.744375 5.4546875 12.03125 6.171875 C12.6875 8.3125 12.6875 8.3125 12.6875 12.3125 C12.0275 12.9725 11.3675 13.6325 10.6875 14.3125 C11.3475 14.9725 12.0075 15.6325 12.6875 16.3125 C12.99880859 15.20841797 12.99880859 15.20841797 13.31640625 14.08203125 C16.5696915 3.77769262 16.5696915 3.77769262 21.171875 1.06640625 C28.09955254 -1.00974556 37.00682473 -1.63638979 43.53515625 1.8203125 C46.15969653 4.09713692 48.13163892 6.20077784 49.6875 9.3125 C49.83651491 11.41303716 49.90888453 13.51937825 49.9375 15.625 C49.96328125 16.75550781 49.9890625 17.88601563 50.015625 19.05078125 C49.50435364 24.13306207 47.52099678 26.43187096 44.0625 30.0859375 C40.20357235 33.12305648 36.44066462 33.05515259 31.6875 32.9375 C30.90632813 32.95683594 30.12515625 32.97617187 29.3203125 32.99609375 C25.17310123 32.96118456 22.48392525 32.5714372 19.2109375 29.91796875 C17.07379148 27.71134895 15.74201801 26.15969864 14.6875 23.3125 C14.275 24.240625 13.8625 25.16875 13.4375 26.125 C11.67854836 29.32880477 10.75631916 30.48561261 7.6875 32.3125 C5.21386719 32.65307617 5.21386719 32.65307617 2.484375 32.60546875 C1.01484375 32.5909668 1.01484375 32.5909668 -0.484375 32.57617188 C-2.00804687 32.5384668 -2.00804687 32.5384668 -3.5625 32.5 C-4.59375 32.48646484 -5.625 32.47292969 -6.6875 32.45898438 C-9.22969792 32.42367607 -11.77083223 32.37436036 -14.3125 32.3125 C-15.16790752 29.12766094 -15.41850229 26.36867396 -15.375 23.0625 C-15.36597656 22.17046875 -15.35695312 21.2784375 -15.34765625 20.359375 C-15.33605469 19.68390625 -15.32445312 19.0084375 -15.3125 18.3125 C-14.3225 17.9825 -13.3325 17.6525 -12.3125 17.3125 C-12.8075 16.8175 -13.3025 16.3225 -13.8125 15.8125 C-15.50941373 12.98431044 -15.75029443 10.67872511 -15.90625 7.41015625 C-13.60575936 -0.71723503 -6.97650624 -0.32047555 0 0 Z M-3.3125 6.3125 C-3.9725 6.9725 -4.6325 7.6325 -5.3125 8.3125 C-4.02336513 8.98404933 -2.73109796 9.64958859 -1.4375 10.3125 C-0.71820313 10.68375 0.00109375 11.055 0.7421875 11.4375 C2.63598977 12.44923746 2.63598977 12.44923746 4.6875 12.3125 C4.10805068 10.31386244 4.10805068 10.31386244 2.6875 8.3125 C-0.35449472 7.02018358 -0.35449472 7.02018358 -3.3125 6.3125 Z M29.5 7 C27.40767136 8.35461954 27.40767136 8.35461954 25.6875 11.3125 C25.02380881 15.93518633 24.7538758 19.99254854 27.5 23.875 C29.71408463 25.46398522 29.71408463 25.46398522 32.6875 26.3125 C35.11546724 25.50317759 36.37407045 24.71995842 37.9375 22.6875 C39.27612731 18.44851353 39.23413292 14.20086827 38 9.9375 C35.66317138 7.04428362 33.10001574 5.86856648 29.5 7 Z M-7.3125 20.3125 C-6.64826793 22.35133888 -6.64826793 22.35133888 -5.3125 24.3125 C-3.12708448 25.0118514 -3.12708448 25.0118514 -0.6875 25.0625 C0.53839844 25.14757812 0.53839844 25.14757812 1.7890625 25.234375 C2.41554687 25.26015625 3.04203125 25.2859375 3.6875 25.3125 C3.01952366 22.15623929 3.01952366 22.15623929 0.4375 21.125 C-2.31041147 20.31311706 -4.46697889 20.14989879 -7.3125 20.3125 Z " fill="#00A2E8" transform="translate(184.3125,468.6875)"/>
<path d="M0 0 C3.22250969 0.22535033 6.07222219 -0.22506793 9.234375 -0.84375 C8.80511719 0.21392578 8.80511719 0.21392578 8.3671875 1.29296875 C7.22960669 4.16830232 6.16045144 7.06077186 5.109375 9.96875 C4.57957031 11.43248047 4.57957031 11.43248047 4.0390625 12.92578125 C3.77351562 13.66183594 3.50796875 14.39789063 3.234375 15.15625 C1.16674588 14.16175277 -0.80056551 13.13404029 -2.73828125 11.90234375 C-8.60564922 8.22838437 -13.83573246 6.93132304 -20.765625 7.15625 C-24.62898186 7.97711663 -24.62898186 7.97711663 -27.765625 10.15625 C-28.51905017 12.48140499 -28.51905017 12.48140499 -27.765625 15.15625 C-23.49766832 18.53504904 -18.91413623 20.55101354 -13.93457031 22.64477539 C4.62210175 30.45414909 4.62210175 30.45414909 8.6484375 39.984375 C10.14045837 45.51479902 9.67304487 50.48382111 8.234375 55.96875 C5.41383788 60.46398104 1.53481835 63.15402582 -3.56494141 64.70263672 C-8.04102329 65.62526376 -12.64973568 65.38369451 -17.203125 65.40625 C-18.24017578 65.426875 -19.27722656 65.4475 -20.34570312 65.46875 C-29.86180492 65.51764455 -29.86180492 65.51764455 -33.765625 62.15625 C-37.88946133 56.17668732 -36.87644165 48.07613396 -36.765625 41.15625 C-34.45134898 43.30522059 -32.69138053 45.27557147 -31.015625 47.96875 C-26.56334092 54.27615245 -22.39279602 58.22794788 -14.640625 59.71875 C-10.21411818 60.23918633 -6.79573489 60.33468778 -2.765625 58.15625 C-1.19626906 55.01753812 -1.41361397 52.61769178 -1.765625 49.15625 C-5.85088648 43.94519622 -11.35827616 41.54030119 -17.203125 38.65625 C-31.91283964 31.36774462 -31.91283964 31.36774462 -35.640625 24.90625 C-37.42383112 18.9622296 -37.36658414 14.3126328 -35.703125 8.34375 C-28.46847876 -3.55840994 -11.89020323 -1.39884744 0 0 Z " fill="#ADC81D" transform="translate(888.765625,334.84375)"/>
<path d="M0 0 C4.31073641 0.44981597 7.94465619 0.28606876 12.1875 -0.5625 C11.66349609 0.79294922 11.66349609 0.79294922 11.12890625 2.17578125 C10.67386719 3.35527344 10.21882812 4.53476562 9.75 5.75 C9.29753906 6.92175781 8.84507812 8.09351563 8.37890625 9.30078125 C7.60765245 11.33132815 6.87437358 13.37687926 6.1875 15.4375 C2.91149356 14.31137279 0.35857514 12.8656214 -2.4375 10.875 C-7.80512604 7.44540151 -13.82404231 6.73365453 -20.0703125 7.8359375 C-22.17022662 8.39180699 -22.17022662 8.39180699 -24.8125 9.4375 C-25.76752158 11.16226911 -25.76752158 11.16226911 -25.8125 13.4375 C-21.79828535 18.50325528 -16.93478015 20.39898259 -11.0625 22.8125 C-2.81384139 26.36449005 4.1446683 29.88931434 10.1875 36.6875 C12.70019841 43.59742063 12.9667286 50.68696356 10.265625 57.5625 C8.04337169 61.42728837 4.64091401 62.80478349 0.7109375 64.515625 C-4.32910199 65.83430495 -9.18728418 65.76632384 -14.375 65.75 C-15.40302734 65.76611328 -16.43105469 65.78222656 -17.49023438 65.79882812 C-26.95608472 65.80496283 -26.95608472 65.80496283 -30.8125 62.4375 C-34.02012554 57.62606169 -33.932458 53.31334248 -33.875 47.625 C-33.86597656 46.46355469 -33.85695313 45.30210937 -33.84765625 44.10546875 C-33.83605469 43.22503906 -33.82445312 42.34460938 -33.8125 41.4375 C-31.866201 43.84175171 -29.95007915 46.24732649 -28.13671875 48.75390625 C-23.95389925 54.49405234 -20.57587003 58.42111213 -13.359375 59.9609375 C-8.34096785 60.6370702 -4.53332107 60.54944627 0.1875 58.4375 C0.455625 57.24125 0.72375 56.045 1 54.8125 C1.15082031 54.13960938 1.30164063 53.46671875 1.45703125 52.7734375 C1.02377632 49.01856145 -1.05177637 46.81426136 -3.8125 44.4375 C-6.98931823 42.51165867 -10.3072864 40.97171115 -13.6875 39.4375 C-21.21066962 35.99262174 -27.81829861 32.59074709 -32.75 25.75 C-34.66326241 19.78512307 -34.63458696 13.94943238 -32.6875 8 C-24.97034968 -2.5467721 -11.58378578 -1.21095972 0 0 Z " fill="#AEC81D" transform="translate(999.8125,334.5625)"/>
<path d="M0 0 C9.24 0 18.48 0 28 0 C28.33 0.66 28.66 1.32 29 2 C29.33 1.67 29.66 1.34 30 1 C31.34267413 0.91368126 32.68974322 0.89293527 34.03515625 0.90234375 C34.84404297 0.90556641 35.65292969 0.90878906 36.48632812 0.91210938 C37.33646484 0.92048828 38.18660156 0.92886719 39.0625 0.9375 C39.91650391 0.94201172 40.77050781 0.94652344 41.65039062 0.95117188 C43.76695663 0.96299627 45.88348685 0.98093231 48 1 C48 2.98 48 4.96 48 7 C47.01 7.33 46.02 7.66 45 8 C44.67 9.65 44.34 11.3 44 13 C46.97 13 49.94 13 53 13 C53 11.02 53 9.04 53 7 C51.68 7 50.36 7 49 7 C49 5.02 49 3.04 49 1 C54.94 1 60.88 1 67 1 C67 2.98 67 4.96 67 7 C66.01 7.33 65.02 7.66 64 8 C64 13.94 64 19.88 64 26 C65.485 26.495 65.485 26.495 67 27 C67 28.98 67 30.96 67 33 C61.06 33 55.12 33 49 33 C49 31.02 49 29.04 49 27 C49.99 26.67 50.98 26.34 52 26 C52.33 24.02 52.66 22.04 53 20 C50.03 20 47.06 20 44 20 C44.495 23.465 44.495 23.465 45 27 C45.99 27 46.98 27 48 27 C48 28.98 48 30.96 48 33 C42.06 33 36.12 33 30 33 C30 31.02 30 29.04 30 27 C30.99 26.67 31.98 26.34 33 26 C33 20.06 33 14.12 33 8 C32.01 7.67 31.02 7.34 30 7 C30.495 9.97 30.495 9.97 31 13 C29.02 13.33 27.04 13.66 25 14 C24.38125 13.195625 23.7625 12.39125 23.125 11.5625 C21.25835959 8.96125481 21.25835959 8.96125481 19 8 C19.33 13.94 19.66 19.88 20 26 C20.99 26.33 21.98 26.66 23 27 C23 28.98 23 30.96 23 33 C17.06 33 11.12 33 5 33 C5 31.02 5 29.04 5 27 C5.99 26.67 6.98 26.34 8 26 C8.495 17.09 8.495 17.09 9 8 C5.15811388 11.4202491 5.15811388 11.4202491 4 14 C1.69 13.67 -0.62 13.34 -3 13 C-2.4351418 8.29284832 -1.52475697 4.57427092 0 0 Z " fill="#00A2E8" transform="translate(53,468)"/>
<path d="M0 0 C4.24964127 -0.14513802 8.49864635 -0.23402037 12.75 -0.3125 C14.55984375 -0.3753418 14.55984375 -0.3753418 16.40625 -0.43945312 C17.56640625 -0.45556641 18.7265625 -0.47167969 19.921875 -0.48828125 C20.99018555 -0.51446533 22.05849609 -0.54064941 23.15917969 -0.56762695 C26 0 26 0 28.31738281 2.34301758 C30 5 30 5 31 8 C31.20625 7.4225 31.4125 6.845 31.625 6.25 C33.58648265 3.04030111 35.71091828 1.82020772 39 0 C41.80908424 -0.62385108 44.50383279 -0.71354377 47.375 -0.6875 C48.50228516 -0.68532471 48.50228516 -0.68532471 49.65234375 -0.68310547 C54.3715294 -0.50357123 57.3265781 0.17578347 61 3.375 C64.67354606 7.36014149 65.17638109 9.89537544 65.25 15.3125 C65.27578125 16.44300781 65.3015625 17.57351563 65.328125 18.73828125 C64.81694949 23.81960922 62.83124322 26.11920428 59.37890625 29.77734375 C55.50373719 32.82938336 51.70490179 32.70720375 46.9375 32.5625 C46.14794922 32.57345703 45.35839844 32.58441406 44.54492188 32.59570312 C40.55704809 32.54556221 38.47752854 32.30508768 35.046875 30.11328125 C31.26034307 26.20390382 29.56315823 22.17044646 28 17 C27.38125 17.495 26.7625 17.99 26.125 18.5 C21.73970259 20.60494276 17.78286739 20.25075227 13 20 C14.11854586 23.72614153 14.11854586 23.72614153 17 26 C17 27.98 17 29.96 17 32 C11.39 32 5.78 32 0 32 C0 30.02 0 28.04 0 26 C0.99 25.67 1.98 25.34 3 25 C3 19.06 3 13.12 3 7 C2.01 6.67 1.02 6.34 0 6 C0 4.02 0 2.04 0 0 Z M13 7 C13 8.98 13 10.96 13 13 C16.465 12.505 16.465 12.505 20 12 C20 10.68 20 9.36 20 8 C17.69 7.67 15.38 7.34 13 7 Z M44.8125 6.6875 C42.72017136 8.04211954 42.72017136 8.04211954 41 11 C40.33630881 15.62268633 40.0663758 19.68004854 42.8125 23.5625 C45.02658463 25.15148522 45.02658463 25.15148522 48 26 C50.42796724 25.19067759 51.68657045 24.40745842 53.25 22.375 C54.58862731 18.13601353 54.54663292 13.88836827 53.3125 9.625 C50.97567138 6.73178362 48.41251574 5.55606648 44.8125 6.6875 Z " fill="#00A2E8" transform="translate(564,469)"/>
<path d="M0 0 C0.33 0 0.66 0 1 0 C1 7.92 1 15.84 1 24 C5.29 24 9.58 24 14 24 C12.08944756 27.82110489 11.50744291 28.95399164 8 31 C6.02 31.33 4.04 31.66 2 32 C2 47.18 2 62.36 2 78 C8.44409629 77.23331243 8.44409629 77.23331243 13.4375 74.4375 C14.11683594 73.98246094 14.79617188 73.52742188 15.49609375 73.05859375 C15.99238281 72.70925781 16.48867188 72.35992187 17 72 C14.47409624 79.41017686 7.90496057 85.47706094 1 89 C-2.05082634 89.81747186 -4.84278172 90.24656371 -8 90 C-11.92195911 87.48592365 -12.86415244 84.39724009 -14 80 C-14.26711842 76.30254859 -14.23284954 72.61946233 -14.1953125 68.9140625 C-14.1924826 67.85714203 -14.18965271 66.80022156 -14.18673706 65.71127319 C-14.1755785 62.34906499 -14.15048159 58.98712714 -14.125 55.625 C-14.11496462 53.33984761 -14.10583975 51.05469102 -14.09765625 48.76953125 C-14.07565332 43.17959589 -14.04221873 37.58981727 -14 32 C-16.64 32 -19.28 32 -22 32 C-21.72566018 28.57671618 -21.31668732 27.29038803 -18.7421875 24.9296875 C-17.32292969 23.91261719 -17.32292969 23.91261719 -15.875 22.875 C-8.07095284 16.79392429 -3.46681852 9.17687254 0 0 Z " fill="#AEC91E" transform="translate(538,310)"/>
<path d="M0 0 C8.65217842 0.62187306 17.09535489 2.22414294 25.59765625 3.87109375 C27.08309783 4.15647685 28.56856687 4.44171709 30.05406189 4.7268219 C33.14498166 5.32129467 36.23517289 5.91939943 39.32495117 6.51977539 C43.29119753 7.2898626 47.25967916 8.0477046 51.22884464 8.80258083 C54.28650465 9.38599746 57.34260626 9.97726665 60.39831352 10.57081795 C61.86226324 10.85389451 63.32676111 11.13415111 64.79179573 11.41155815 C66.82781689 11.79798811 68.86142082 12.19526947 70.89477539 12.59545898 C72.05264053 12.81894516 73.21050568 13.04243134 74.40345764 13.27268982 C75.26031662 13.51270218 76.1171756 13.75271454 77 14 C77.495 14.99 77.495 14.99 78 16 C71.72154737 18.25615766 65.48783142 19.87518895 58.9453125 21.15625 C57.53377396 21.43885681 57.53377396 21.43885681 56.09371948 21.72717285 C54.10925497 22.12313471 52.12422664 22.51628029 50.13867188 22.90673828 C47.16648713 23.49183298 44.19644812 24.08695172 41.2265625 24.68359375 C31.94333538 26.53494188 22.65302575 28.28921536 13.3046875 29.78125 C12.52118927 29.90705444 11.73769104 30.03285889 10.93045044 30.16247559 C7.56074016 30.68326219 4.41980719 31 1 31 C0.34956362 20.6510926 -0.16494885 10.3734499 0 0 Z " fill="#FCEB00" transform="translate(719,204)"/>
<path d="M0 0 C0.09784929 10.39376858 0.09323086 20.64929477 -1 31 C-10.08602079 29.75094608 -19.12530706 28.34274225 -28.15234375 26.72265625 C-29.33671524 26.51064072 -30.52108673 26.29862518 -31.74134827 26.08018494 C-34.21788429 25.63540598 -36.69415537 25.18914943 -39.17016602 24.74145508 C-42.95127687 24.06001711 -46.73436264 23.39034426 -50.51757812 22.72070312 C-52.93763057 22.28457806 -55.35755713 21.84775379 -57.77734375 21.41015625 C-58.90035385 21.21317642 -60.02336395 21.01619659 -61.18040466 20.81324768 C-66.82361607 19.77849334 -71.90344268 18.68499605 -77 16 C-77.33 15.34 -77.66 14.68 -78 14 C-68.71729036 12.16796792 -59.43340461 10.34205188 -50.1479702 8.52388 C-45.83617011 7.67939239 -41.52480081 6.83282317 -37.21435547 5.98144531 C-33.05265339 5.15952686 -28.8899 4.34314382 -24.72636795 3.5305481 C-23.14001607 3.21993919 -21.55404954 2.90735531 -19.96848679 2.59274292 C-17.74349583 2.15160742 -15.51722433 1.7175856 -13.29052734 1.28515625 C-12.02477875 1.03644775 -10.75903015 0.78773926 -9.45492554 0.53149414 C-6.23482434 0.03612459 -3.25064643 -0.10261957 0 0 Z " fill="#FCEB00" transform="translate(512,204)"/>
<path d="M0 0 C0.66 0 1.32 0 2 0 C5.57102205 16.11142791 9.09842499 32.23266586 12.4694519 48.38726807 C12.77997518 49.87187587 13.09255724 51.35605463 13.40725708 52.83978271 C13.84905187 54.92585446 14.28296443 57.01341851 14.71484375 59.1015625 C14.96355225 60.29088379 15.21226074 61.48020508 15.46850586 62.70556641 C16 66 16 66 16 72 C0.655 72.495 0.655 72.495 -15 73 C-15 63.9992469 -15 63.9992469 -14.3449707 60.76904297 C-14.20077194 60.03912643 -14.05657318 59.3092099 -13.90800476 58.55717468 C-13.748871 57.79322891 -13.58973724 57.02928314 -13.42578125 56.2421875 C-13.26161209 55.42414139 -13.09744293 54.60609528 -12.92829895 53.76325989 C-12.39777217 51.13212563 -11.8557402 48.50353622 -11.3125 45.875 C-10.94419461 44.06882826 -10.57619427 42.26259428 -10.20849609 40.45629883 C-8.24557076 30.85335698 -6.25331056 21.25528797 -4.125 11.6875 C-3.93462158 10.81915527 -3.74424316 9.95081055 -3.5480957 9.05615234 C-2.74295571 5.54380645 -2.01946468 3.02919702 0 0 Z " fill="#FDEC00" transform="translate(615,47)"/>
<path d="M0 0 C7.01850581 3.34085367 13.59983406 7.0949117 20.125 11.3125 C21.05570313 11.9098999 21.98640625 12.5072998 22.9453125 13.12280273 C30.33193664 17.882485 37.6757168 22.70753694 45 27.5625 C46.00820801 28.22870361 47.01641602 28.89490723 48.05517578 29.58129883 C52.93348204 32.83529356 57.59636327 36.12450213 62 40 C58.72508989 44.19597858 55.2516314 47.60882137 51.203125 51.0546875 C47.28532584 54.5140208 43.65591946 58.26791555 40 62 C34.78240472 57.35543542 31.24734401 51.68698147 27.4375 45.875 C26.73439697 44.81055664 26.03129395 43.74611328 25.30688477 42.64941406 C0 4.21075835 0 4.21075835 0 0 Z " fill="#FBEA00" transform="translate(493,97)"/>
<path d="M0 0 C-1.50424331 5.51847402 -4.1759189 9.8140279 -7.25 14.5625 C-7.77577637 15.38387451 -8.30155273 16.20524902 -8.84326172 17.05151367 C-14.57475118 25.96651012 -20.41861625 34.80786894 -26.36328125 43.58203125 C-27.42242477 45.14673254 -28.47739925 46.71426743 -29.52734375 48.28515625 C-30.87942511 50.30411784 -32.24858222 52.31008135 -33.625 54.3125 C-34.01445801 54.89942627 -34.40391602 55.48635254 -34.80517578 56.09106445 C-35.9140625 57.67578125 -35.9140625 57.67578125 -38 60 C-42 60 -42 60 -44.98828125 57.3671875 C-46.10581648 56.21220607 -47.21347061 55.04760458 -48.3125 53.875 C-49.46687834 52.67917995 -50.62311079 51.48514681 -51.78125 50.29296875 C-52.33425781 49.7211084 -52.88726563 49.14924805 -53.45703125 48.56005859 C-56.14849673 45.83878258 -59.0343266 43.41392021 -62 41 C-47.64243165 26.01132974 -27.23760119 15.37955479 -9.6875 4.5625 C-8.93500977 4.09593994 -8.18251953 3.62937988 -7.40722656 3.14868164 C-2.24195993 0 -2.24195993 0 0 0 Z " fill="#FBEA00" transform="translate(738,97)"/>
<path d="M0 0 C4.67290272 5.52270987 4.60101203 12.41566184 4.609375 19.28125 C4.63417938 20.86238586 4.63417938 20.86238586 4.65948486 22.47546387 C4.7077742 25.81703632 4.72929404 29.15815428 4.75 32.5 C4.77817553 34.7760643 4.80810515 37.0521076 4.83984375 39.328125 C4.91352788 44.88533468 4.96528189 50.44241754 5 56 C8.33822957 55.38550003 11.02209492 54.65439171 14 53 C12.3002104 58.25389512 9.47194773 62.56887237 4.625 65.375 C1.22087713 66.18550545 -1.50995797 66.37393307 -5 66 C-8.38939556 63.86320715 -9.72582557 62.8225233 -11 59 C-11.11471012 57.38975487 -11.1762774 55.77544145 -11.20532227 54.16137695 C-11.22526749 53.1805867 -11.24521271 52.19979645 -11.26576233 51.18928528 C-11.28247482 50.13295395 -11.29918732 49.07662262 -11.31640625 47.98828125 C-11.33718735 46.90491989 -11.35796844 45.82155853 -11.37937927 44.70536804 C-11.44481797 41.24114384 -11.50373353 37.7768432 -11.5625 34.3125 C-11.60569061 31.96548685 -11.64930507 29.61848147 -11.69335938 27.27148438 C-11.80049357 21.51440396 -11.90227064 15.75724733 -12 10 C-17.3086849 10.58174845 -17.3086849 10.58174845 -22 13 C-21.37086375 7.62458587 -19.09557777 5.81448616 -15.046875 2.51953125 C-10.27484408 -1.02306422 -5.65866415 -2.20818237 0 0 Z " fill="#AFCA1E" transform="translate(834,334)"/>
<path d="M0 0 C4.05664947 -0.0990914 8.1128277 -0.17157106 12.17041016 -0.21972656 C13.5497668 -0.23980642 14.92903869 -0.26707666 16.30810547 -0.30175781 C18.29356979 -0.35042817 20.27966254 -0.37086418 22.265625 -0.390625 C23.45961914 -0.41157227 24.65361328 -0.43251953 25.88378906 -0.45410156 C29.60739896 0.0885116 30.74395263 1.0517524 33 4 C33.81156154 7.07833687 33.64931904 9.89292792 33 13 C31.56162971 15.44373638 30.05673704 16.99468139 28 19 C30.38957269 22.24299151 32.2047869 24.50902342 36 26 C36 27.98 36 29.96 36 32 C24.26863725 32.91545316 24.26863725 32.91545316 21.24609375 30.734375 C19.80557335 28.54435875 19 26.63809435 19 24 C18.34 24 17.68 24 17 24 C16.34 23.01 15.68 22.02 15 21 C15 22.32 15 23.64 15 25 C15.99 25.33 16.98 25.66 18 26 C18 27.98 18 29.96 18 32 C12.06 32 6.12 32 0 32 C0 30.02 0 28.04 0 26 C0.99 26 1.98 26 3 26 C3 19.73 3 13.46 3 7 C2.01 6.67 1.02 6.34 0 6 C0 4.02 0 2.04 0 0 Z M14 7 C14 8.65 14 10.3 14 12 C18.65052872 12.26932521 18.65052872 12.26932521 23 11 C23 10.01 23 9.02 23 8 C20.03 7.67 17.06 7.34 14 7 Z " fill="#00A1E8" transform="translate(705,469)"/>
<path d="M0 0 C4.05664947 -0.0990914 8.1128277 -0.17157106 12.17041016 -0.21972656 C13.5497668 -0.23980642 14.92903869 -0.26707666 16.30810547 -0.30175781 C18.29356979 -0.35042817 20.27966254 -0.37086418 22.265625 -0.390625 C23.45961914 -0.41157227 24.65361328 -0.43251953 25.88378906 -0.45410156 C29.60741671 0.08851419 30.74093694 1.05489409 33 4 C33.88228085 7.09944116 33.72450908 9.8709608 33 13 C31.30418185 15.68586227 29.32621497 17.8468665 27 20 C27.66 20 28.32 20 29 20 C30.68762851 21.6454378 32.3540349 23.31288577 34 25 C34.66 25.33 35.32 25.66 36 26 C36 27.98 36 29.96 36 32 C33.91846065 32.13536022 31.83438794 32.23215465 29.75 32.3125 C28.58984375 32.37050781 27.4296875 32.42851562 26.234375 32.48828125 C23 32 23 32 20.578125 29.66796875 C19 27 19 27 19 24 C18.34 24 17.68 24 17 24 C16.34 23.01 15.68 22.02 15 21 C15 22.32 15 23.64 15 25 C15.99 25.33 16.98 25.66 18 26 C18 27.98 18 29.96 18 32 C12.06 32 6.12 32 0 32 C0 30.02 0 28.04 0 26 C0.99 26 1.98 26 3 26 C3 19.73 3 13.46 3 7 C2.01 6.67 1.02 6.34 0 6 C0 4.02 0 2.04 0 0 Z M14 7 C14 8.65 14 10.3 14 12 C18.65052872 12.26932521 18.65052872 12.26932521 23 11 C23 10.01 23 9.02 23 8 C20.03 7.67 17.06 7.34 14 7 Z " fill="#00A1E8" transform="translate(446,469)"/>
<path d="M0 0 C9.57 0 19.14 0 29 0 C32 8 32 8 32 11 C29.69 11.33 27.38 11.66 25 12 C24.67 11.34 24.34 10.68 24 10 C24 13.96 24 17.92 24 22 C24.99 20.35 25.98 18.7 27 17 C31.75 17.75 31.75 17.75 34 20 C32.68 23.96 31.36 27.92 30 32 C20.1 32 10.2 32 0 32 C0 30.02 0 28.04 0 26 C1.32 25.67 2.64 25.34 4 25 C3.67 19.06 3.34 13.12 3 7 C2.01 6.67 1.02 6.34 0 6 C0 4.02 0 2.04 0 0 Z M14 7 C14 8.32 14 9.64 14 11 C14.99 10.67 15.98 10.34 17 10 C17 9.01 17 8.02 17 7 C16.01 7 15.02 7 14 7 Z M14 18 C14 20.31 14 22.62 14 25 C16.64 24.67 19.28 24.34 22 24 C22 23.67 22 23.34 22 23 C20.35 23 18.7 23 17 23 C16.87625 22.360625 16.7525 21.72125 16.625 21.0625 C16.315625 20.0415625 16.315625 20.0415625 16 19 C15.34 18.67 14.68 18.34 14 18 Z " fill="#00A1E7" transform="translate(347,469)"/>
<path d="M0 0 C11 0 22 0 33 0 C33 1.98 33 3.96 33 6 C32.01 6.33 31.02 6.66 30 7 C29.67 15.25 29.34 23.5 29 32 C26.03 32 23.06 32 20 32 C17.36 26.72 14.72 21.44 12 16 C12 18.97 12 21.94 12 25 C12.99 25.33 13.98 25.66 15 26 C15 27.98 15 29.96 15 32 C10.05 32 5.1 32 0 32 C0 30.02 0 28.04 0 26 C0.99 25.34 1.98 24.68 3 24 C3.30330339 21.24053386 3.41834858 18.75504315 3.375 16 C3.38660156 15.26265625 3.39820313 14.5253125 3.41015625 13.765625 C3.43409002 11.37184431 3.43409002 11.37184431 3 8 C2.01 7.34 1.02 6.68 0 6 C-0.1875 2.875 -0.1875 2.875 0 0 Z M18 6 C18.66 7.65 19.32 9.3 20 11 C20.33 11 20.66 11 21 11 C21 9.35 21 7.7 21 6 C20.01 6 19.02 6 18 6 Z " fill="#00A2E7" transform="translate(971,469)"/>
<path d="M0 0 C9.57 0 19.14 0 29 0 C29.99 3.3 30.98 6.6 32 10 C29 12 29 12 26.3125 11.625 C25.549375 11.41875 24.78625 11.2125 24 11 C24 10.34 24 9.68 24 9 C23.34 9 22.68 9 22 9 C22.33 13.29 22.66 17.58 23 22 C23.99 20.35 24.98 18.7 26 17 C30.75 17.875 30.75 17.875 33 19 C32.71517632 20.41805831 32.42181856 21.83440379 32.125 23.25 C31.96257812 24.03890625 31.80015625 24.8278125 31.6328125 25.640625 C31 28 31 28 29 32 C19.43 32 9.86 32 0 32 C0 30.02 0 28.04 0 26 C0.99 25.34 1.98 24.68 3 24 C3.30330339 21.24053386 3.41834858 18.75504315 3.375 16 C3.38660156 15.26265625 3.39820312 14.5253125 3.41015625 13.765625 C3.43409002 11.37184431 3.43409002 11.37184431 3 8 C2.01 7.34 1.02 6.68 0 6 C0 4.02 0 2.04 0 0 Z M13 7 C13 8.65 13 10.3 13 12 C13.99 11.67 14.98 11.34 16 11 C16 9.68 16 8.36 16 7 C15.01 7 14.02 7 13 7 Z M13 18 C13 19.98 13 21.96 13 24 C16.32534757 25.10844919 18.62182575 24.84454356 22 24 C22 23.67 22 23.34 22 23 C20.02 23 18.04 23 16 23 C16 21.68 16 20.36 16 19 C15.01 18.67 14.02 18.34 13 18 Z " fill="#00A1E8" transform="translate(121,469)"/>
<path d="M0 0 C0.97904297 0.01804687 1.95808594 0.03609375 2.96679688 0.0546875 C5.37470771 0.10167113 7.78059335 0.16734306 10.1875 0.25 C11.68871825 4.46995996 12.4015723 7.75448168 12.1875 12.25 C10.2075 12.58 8.2275 12.91 6.1875 13.25 C5.8575 12.610625 5.5275 11.97125 5.1875 11.3125 C2.10700305 8.13573752 -0.44491375 8.38865353 -4.8125 8.25 C-7.47498083 10.91248083 -7.53082705 12.51783345 -7.8125 16.25 C-7.33769289 19.99660307 -7.33769289 19.99660307 -5.8125 23.25 C-3.08771347 24.97091781 -1.67777681 25.39031516 1.5 24.875 C2.3353125 24.565625 2.3353125 24.565625 3.1875 24.25 C2.8575 23.26 2.5275 22.27 2.1875 21.25 C1.1975 20.92 0.2075 20.59 -0.8125 20.25 C-0.8125 18.27 -0.8125 16.29 -0.8125 14.25 C4.7975 14.25 10.4075 14.25 16.1875 14.25 C16.1875 16.23 16.1875 18.21 16.1875 20.25 C14.8675 20.58 13.5475 20.91 12.1875 21.25 C12.1875 24.88 12.1875 28.51 12.1875 32.25 C8.4779396 32.3852757 4.77333531 32.4842595 1.0625 32.5625 C0.01578125 32.60439453 -1.0309375 32.64628906 -2.109375 32.68945312 C-10.84001952 32.82759623 -10.84001952 32.82759623 -14.4375 29.8984375 C-19.05074821 24.75405874 -20.3894855 20.52876626 -20.1640625 13.71484375 C-19.46621762 8.82217576 -17.14144332 5.72133011 -13.84375 2.0703125 C-9.31581805 -0.64878066 -5.17105757 -0.18058764 0 0 Z " fill="#00A2E7" transform="translate(500.8125,468.75)"/>
<path d="M0 0 C6.93 0 13.86 0 21 0 C24 9 24 9 24 12 C23.01 12.66 22.02 13.32 21 14 C21.72703125 14.59167969 21.72703125 14.59167969 22.46875 15.1953125 C24.43970341 17.51822187 24.46331267 18.85746695 24.5 21.875 C24.5309375 22.71804688 24.561875 23.56109375 24.59375 24.4296875 C23.67869493 28.39091275 22.34674725 29.68238782 19 32 C15.20824717 32.60188929 11.51424632 32.47164172 7.6875 32.3125 C6.66076172 32.28994141 5.63402344 32.26738281 4.57617188 32.24414062 C2.0492821 32.18537575 -0.47460255 32.10327849 -3 32 C-4.64019775 27.44102516 -5.19447287 23.86182168 -5 19 C-3.68 18.34 -2.36 17.68 -1 17 C-1.99 16.34 -2.98 15.68 -4 15 C-4.546875 12.90625 -4.546875 12.90625 -4.75 10.5 C-4.82734375 9.7059375 -4.9046875 8.911875 -4.984375 8.09375 C-5 6 -5 6 -4 4 C-3.34 4 -2.68 4 -2 4 C-1.34 2.68 -0.68 1.36 0 0 Z M7 6 C6.67 6.99 6.34 7.98 6 9 C8.97 9.99 11.94 10.98 15 12 C13.44117911 7.77508516 13.44117911 7.77508516 9.875 6.75 C8.92625 6.5025 7.9775 6.255 7 6 Z M2 19 C2.44033992 20.98020421 2.44033992 20.98020421 4 23 C6.5863924 24.26152609 9.25200829 25.15643045 12 26 C12.99 25.01 13.98 24.02 15 23 C10.63799813 20.55302334 6.97306516 19.49730652 2 19 Z " fill="#00A1E7" transform="translate(761,469)"/>
<path d="M0 0 C0.73347656 -0.01546875 1.46695313 -0.0309375 2.22265625 -0.046875 C7.3996505 -0.00983032 10.45659615 1.02742963 14.5 4.5 C17.63744642 8.41849848 17.90701472 11.54839031 17.875 16.5 C17.88660156 18.294375 17.88660156 18.294375 17.8984375 20.125 C17.47448066 23.71616379 16.70606752 25.65901549 14.5 28.5 C13.84 28.5 13.18 28.5 12.5 28.5 C12.5 29.16 12.5 29.82 12.5 30.5 C6.86249263 34.20379772 -1.99538888 33.33409357 -8.5 32.5 C-12.47544284 31.05546972 -14.72777176 29.06032419 -16.640625 25.1953125 C-18.51852876 19.30552345 -18.25321447 12.8433339 -16.375 7 C-11.85660379 0.97547172 -7.08984311 -0.14952217 0 0 Z M-0.5 6.5 C-4.02381687 9.04604597 -4.02381687 9.04604597 -6.5 12.5 C-7.00808029 16.81451788 -7.19313623 20.33553114 -4.9375 24.125 C-1.51315661 26.05668089 0.76229358 25.36254764 4.5 24.5 C7.36072374 18.18583241 7.36072374 18.18583241 6.5 11.5625 C4.3534885 8.27565426 3.2519597 7.41263885 -0.5 6.5 Z " fill="#00A1E7" transform="translate(803.5,468.5)"/>
<path d="M0 0 C0.7425 -0.02449219 1.485 -0.04898437 2.25 -0.07421875 C7.49555983 -0.10202207 10.4857421 0.8879888 14.625 4.375 C18.21513823 10.35856372 18.70743666 16.63031933 17.15625 23.4296875 C15.45926927 28.13678881 12.93131981 30.07436339 8.625 32.375 C5.72679334 32.87802933 2.93328397 32.84675763 0 32.75 C-1.12535156 32.74806641 -1.12535156 32.74806641 -2.2734375 32.74609375 C-6.09453155 32.68511884 -9.13798027 32.51588607 -12.375 30.375 C-12.375 29.715 -12.375 29.055 -12.375 28.375 C-13.014375 28.1275 -13.65375 27.88 -14.3125 27.625 C-16.375 26.375 -16.375 26.375 -16.98828125 24.6640625 C-18.18878734 17.55803657 -18.4575687 10.49885305 -14.375 4.375 C-13.715 4.375 -13.055 4.375 -12.375 4.375 C-12.375 3.715 -12.375 3.055 -12.375 2.375 C-8.51883144 -0.17537603 -4.45867402 0.00766095 0 0 Z M-2.5 6.875 C-5.24327342 9.06961874 -6.19219996 11.07561041 -7.375 14.375 C-7.30729232 18.30204544 -6.89234915 20.57907824 -4.75 23.875 C-2.31253046 25.74062872 -2.31253046 25.74062872 1.375 25.125 C2.4475 24.8775 3.52 24.63 4.625 24.375 C7.48572374 18.06083241 7.48572374 18.06083241 6.625 11.4375 C4.8743724 8.29996505 4.8743724 8.29996505 2.1875 6.8125 C-0.31190303 6.21453294 -0.31190303 6.21453294 -2.5 6.875 Z " fill="#00A2E7" transform="translate(952.375,468.625)"/>
<path d="M0 0 C5.34722775 4.62682325 8.51450761 10.44955667 12.0625 16.5 C13.04126099 18.15177246 13.04126099 18.15177246 14.03979492 19.83691406 C16.03741417 23.21836028 18.0214561 26.60736166 20 30 C20.60521484 31.03705078 21.21042969 32.07410156 21.83398438 33.14257812 C23.5007417 36.00760892 25.15942827 38.87705412 26.8125 41.75 C27.30951416 42.61173828 27.80652832 43.47347656 28.31860352 44.36132812 C28.77678467 45.16505859 29.23496582 45.96878906 29.70703125 46.796875 C30.30221558 47.83859863 30.30221558 47.83859863 30.90942383 48.90136719 C32.09944569 51.19136672 33.041535 53.6038375 34 56 C28.06 58.31 22.12 60.62 16 63 C13.68111522 60.68111522 13.36678061 59.34188255 12.51953125 56.20703125 C12.24568604 55.19850098 11.97184082 54.1899707 11.68969727 53.15087891 C11.40022217 52.04921387 11.11074707 50.94754883 10.8125 49.8125 C10.51077881 48.67731934 10.20905762 47.54213867 9.89819336 46.37255859 C7.44421358 36.9965935 5.20960615 27.57530586 3.0625 18.125 C2.90729889 17.44652008 2.75209778 16.76804016 2.5921936 16.06900024 C2.15118355 14.1331444 1.71801 12.19550839 1.28515625 10.2578125 C1.03644775 9.1455127 0.78773926 8.03321289 0.53149414 6.88720703 C0 4 0 4 0 0 Z " fill="#FBEA00" transform="translate(552,67)"/>
<path d="M0 0 C0.33 0 0.66 0 1 0 C0.41734118 6.06527227 -0.50596374 11.84863007 -1.92578125 17.76953125 C-2.20907539 18.97291389 -2.20907539 18.97291389 -2.49809265 20.2006073 C-2.89640264 21.88607207 -3.29738161 23.57090818 -3.70092773 25.25512695 C-4.30805149 27.79389795 -4.90361485 30.33518439 -5.49804688 32.87695312 C-10.42314226 53.7390461 -10.42314226 53.7390461 -13 59 C-17.13476901 60.37825634 -19.78091048 58.82520961 -23.625 57.25 C-24.31851563 56.98445313 -25.01203125 56.71890625 -25.7265625 56.4453125 C-27.5241239 55.72207491 -29.26778415 54.86817501 -31 54 C-32 51 -32 51 -30.75927734 48.31469727 C-29.80722412 46.70679321 -29.80722412 46.70679321 -28.8359375 45.06640625 C-28.4920549 44.48042664 -28.1481723 43.89444702 -27.79386902 43.29071045 C-26.6648866 41.37477549 -25.52064159 39.46851291 -24.375 37.5625 C-23.59590864 36.25111145 -22.81718313 34.93950549 -22.03881836 33.62768555 C-4.95283819 4.95283819 -4.95283819 4.95283819 0 0 Z " fill="#FBEA00" transform="translate(677,69)"/>
<path d="M0 0 C10.43791846 1.29485768 20.50339929 3.68258604 30.68603516 6.25854492 C33.38881789 6.94098897 36.09454918 7.61067825 38.80078125 8.27929688 C40.54185594 8.71539086 42.2827482 9.15221399 44.0234375 9.58984375 C45.2204982 9.88531349 45.2204982 9.88531349 46.44174194 10.18675232 C51.19796649 11.40052092 55.53733246 12.95105803 60 15 C59.37954537 19.23322844 57.89476441 22.52290295 55.9375 26.3125 C55.38964844 27.38113281 54.84179688 28.44976562 54.27734375 29.55078125 C53.85582031 30.35902344 53.43429687 31.16726562 53 32 C47.99190972 31.42063269 44.18120194 29.13430123 39.875 26.6875 C39.09455322 26.24889648 38.31410645 25.81029297 37.51000977 25.35839844 C28.47650099 20.22312625 19.70989067 14.66267075 11 9 C9.76854248 8.21399414 9.76854248 8.21399414 8.51220703 7.41210938 C7.70509277 6.88939453 6.89797852 6.36667969 6.06640625 5.828125 C5.33494385 5.35793945 4.60348145 4.88775391 3.84985352 4.40332031 C2 3 2 3 0 0 Z " fill="#FBEA00" transform="translate(464,156)"/>
<path d="M0 0 C-4.52200885 3.85482721 -9.45194739 6.89660915 -14.5 10 C-15.86886353 10.84461792 -15.86886353 10.84461792 -17.26538086 11.70629883 C-48.5617978 30.89297967 -48.5617978 30.89297967 -53.046875 31.08984375 C-56.30358027 29.27260221 -57.03992814 25.9056322 -58.25 22.5625 C-58.518125 21.86833984 -58.78625 21.17417969 -59.0625 20.45898438 C-61 15.35327647 -61 15.35327647 -61 13 C-53.56262222 11.16376462 -46.1243862 9.33103782 -38.68554688 7.50073242 C-36.15572596 6.8778402 -33.62610165 6.25414897 -31.09667969 5.62963867 C-27.45819833 4.73145111 -23.81901663 3.83615168 -20.1796875 2.94140625 C-19.05134491 2.6622084 -17.92300232 2.38301056 -16.76046753 2.09535217 C-15.69982086 1.83515793 -14.63917419 1.57496368 -13.54638672 1.30688477 C-12.15406326 0.96380028 -12.15406326 0.96380028 -10.73361206 0.61378479 C-2.47919877 -1.23959938 -2.47919877 -1.23959938 0 0 Z " fill="#FAE900" transform="translate(768,157)"/>
<path d="M0 0 C5.94 0 11.88 0 18 0 C18 1.98 18 3.96 18 6 C17.01 6.495 17.01 6.495 16 7 C16.99 7.66 17.98 8.32 19 9 C19.66 8.01 20.32 7.02 21 6 C20.34 6 19.68 6 19 6 C19 4.02 19 2.04 19 0 C23.95 0 28.9 0 34 0 C34 6 34 6 31.875 8.375 C30.92625 9.24125 29.9775 10.1075 29 11 C24.44034427 16.09430672 24.44034427 16.09430672 22.625 22.5 C22.74875 23.325 22.8725 24.15 23 25 C23.99 25.33 24.98 25.66 26 26 C26 27.98 26 29.96 26 32 C20.39 32 14.78 32 9 32 C9 30.02 9 28.04 9 26 C9.66 25.67 10.32 25.34 11 25 C10.84699876 17.96194298 7.44254641 13.30583599 3 8 C2.01 7.34 1.02 6.68 0 6 C0 4.02 0 2.04 0 0 Z " fill="#00A2E7" transform="translate(515,469)"/>
<path d="M0 0 C5.94 0 11.88 0 18 0 C18 1.98 18 3.96 18 6 C17.01 6 16.02 6 15 6 C15 11.94 15 17.88 15 24 C20.89737629 22.68773201 20.89737629 22.68773201 22.875 19.375 C23.24625 18.59125 23.6175 17.8075 24 17 C25.98 17.33 27.96 17.66 30 18 C31 21 31 21 27 32 C18.09 32 9.18 32 0 32 C0 30.02 0 28.04 0 26 C0.99 25.67 1.98 25.34 3 25 C3 19.06 3 13.12 3 7 C2.01 6.67 1.02 6.34 0 6 C0 4.02 0 2.04 0 0 Z " fill="#00A0E8" transform="translate(822,469)"/>
<path d="M0 0 C9.11079727 0.72484923 13.58294121 6.04849275 19.34765625 12.71484375 C27 22.17264065 27 22.17264065 27 26 C23.06256167 26.05797565 19.12523281 26.09358789 15.1875 26.125 C14.06794922 26.14175781 12.94839844 26.15851563 11.79492188 26.17578125 C10.72177734 26.18222656 9.64863281 26.18867188 8.54296875 26.1953125 C7.0583313 26.21102295 7.0583313 26.21102295 5.54370117 26.22705078 C3 26 3 26 0 24 C-0.34057617 21.56982422 -0.34057617 21.56982422 -0.29296875 18.5546875 C-0.28330078 17.47832031 -0.27363281 16.40195313 -0.26367188 15.29296875 C-0.23853516 14.16503906 -0.21339844 13.03710938 -0.1875 11.875 C-0.17396484 10.73933594 -0.16042969 9.60367188 -0.14648438 8.43359375 C-0.11104319 5.62192613 -0.06163517 2.81119583 0 0 Z " fill="#009EE1" transform="translate(665,150)"/>
<path d="M0 0 C1.21518865 3.64556594 1.18405888 7.01694164 1.1875 10.8125 C1.19974609 11.51181641 1.21199219 12.21113281 1.22460938 12.93164062 C1.2369349 17.32363737 0.84739077 20.9922054 -1 25 C-4.00015912 26.00005304 -5.97423756 26.11575585 -9.10546875 26.09765625 C-10.08837891 26.09443359 -11.07128906 26.09121094 -12.08398438 26.08789062 C-13.10814453 26.07951172 -14.13230469 26.07113281 -15.1875 26.0625 C-16.22326172 26.05798828 -17.25902344 26.05347656 -18.32617188 26.04882812 C-20.88417266 26.0370401 -23.44205733 26.02058515 -26 26 C-24.16441087 15.96284244 -15.35772923 8.60195039 -8 2 C-4.87185722 0.02001449 -3.91825603 0 0 0 Z " fill="#009FE2" transform="translate(566,150)"/>
<path d="M0 0 C2.27775682 3.41663523 3.15746855 6.39783863 2.625 10.4375 C0.03397742 16.17543728 -3.65006796 20.75774458 -9.375 23.4375 C-12.0625 23.5625 -12.0625 23.5625 -14.375 22.4375 C-17.80817925 17.65557176 -18.38463356 12.19836836 -18.375 6.4375 C-17.4806782 2.93473961 -16.25543037 0.65321567 -13.375 -1.5625 C-8.90063847 -3.48008351 -3.98226496 -2.61991116 0 0 Z " fill="#ADC71D" transform="translate(835.375,305.5625)"/>
<path d="M0 0 C2.5654594 2.5654594 2.54046087 4.47686668 3 8 C5.97 8 8.94 8 12 8 C10.11656068 11.76687864 9.30867531 12.79421646 6 15 C6.66 17.64 7.32 20.28 8 23 C5.0280615 21.87548273 2.66559313 20.77706209 0 19 C-2.31 20.32 -4.62 21.64 -7 23 C-6.505 18.545 -6.505 18.545 -6 14 C-6.99 13.38125 -7.98 12.7625 -9 12.125 C-9.99 11.42375 -10.98 10.7225 -12 10 C-12 9.34 -12 8.68 -12 8 C-7.545 7.505 -7.545 7.505 -3 7 C-2.01 4.69 -1.02 2.38 0 0 Z " fill="#ABC61A" transform="translate(402,621)"/>
<path d="M0 0 C2 1 2 1 3.125 4.0625 C3.41375 5.031875 3.7025 6.00125 4 7 C6.97 7.33 9.94 7.66 13 8 C13 8.66 13 9.32 13 10 C11.03852126 11.38938077 9.03833424 12.7260411 7 14 C7.33 16.97 7.66 19.94 8 23 C5.36 21.68 2.72 20.36 0 19 C-0.78375 19.66 -1.5675 20.32 -2.375 21 C-5 23 -5 23 -7 23 C-6.86980469 22.39671875 -6.73960937 21.7934375 -6.60546875 21.171875 C-6.18039828 18.70884987 -5.87912321 16.49955925 -6 14 C-8.30068019 11.50789479 -8.30068019 11.50789479 -11 10 C-11 9.34 -11 8.68 -11 8 C-8.03 8 -5.06 8 -2 8 C-1.7834375 6.576875 -1.7834375 6.576875 -1.5625 5.125 C-1 2 -1 2 0 0 Z " fill="#ABC61C" transform="translate(285,520)"/>
<path d="M0 0 C0.66 0 1.32 0 2 0 C2.66 2.64 3.32 5.28 4 8 C6.97 8 9.94 8 13 8 C13 8.66 13 9.32 13 10 C11.03852126 11.38938077 9.03833424 12.7260411 7 14 C7.66 16.97 8.32 19.94 9 23 C5.9168649 21.80100302 2.93720508 20.52299523 0 19 C-0.78375 19.66 -1.5675 20.32 -2.375 21 C-5 23 -5 23 -7 23 C-6.34 20.03 -5.68 17.06 -5 14 C-5.99 13.38125 -6.98 12.7625 -8 12.125 C-8.99 11.42375 -9.98 10.7225 -11 10 C-11 9.34 -11 8.68 -11 8 C-8.03 8 -5.06 8 -2 8 C-1.34 5.36 -0.68 2.72 0 0 Z " fill="#009CDD" transform="translate(679,583)"/>
<path d="M0 0 C0.66 0.33 1.32 0.66 2 1 C2.40729228 3.32156597 2.74438677 5.6568787 3 8 C6.3 8 9.6 8 13 8 C11.7934375 9.11375 11.7934375 9.11375 10.5625 10.25 C7.68552898 13.22181176 7.68552898 13.22181176 7 17 C7.27050453 19.00946222 7.59367909 21.01354224 8 23 C7.50371094 22.66484375 7.00742187 22.3296875 6.49609375 21.984375 C4.32119262 20.68025971 2.44825205 19.68125275 0 19 C-2.89717995 19.86644634 -4.53432567 21.15074425 -7 23 C-6.85820313 22.40832031 -6.71640625 21.81664062 -6.5703125 21.20703125 C-6.10358428 18.69734355 -5.8077642 16.5503283 -6 14 C-7.75554678 11.68267825 -9.52038919 10.61933767 -12 9 C-12 8.67 -12 8.34 -12 8 C-7.545 7.505 -7.545 7.505 -3 7 C-2.01 4.69 -1.02 2.38 0 0 Z " fill="#ADC71C" transform="translate(726,528)"/>
<path d="M0 0 C0.66 0 1.32 0 2 0 C2.66 2.64 3.32 5.28 4 8 C6.97 8 9.94 8 13 8 C12.195625 8.78375 11.39125 9.5675 10.5625 10.375 C8.01309583 12.71982856 8.01309583 12.71982856 7 15 C7.31763653 16.99896911 7.31763653 16.99896911 7.9375 19.125 C8.22947266 20.21167969 8.22947266 20.21167969 8.52734375 21.3203125 C8.68332031 21.87460937 8.83929687 22.42890625 9 23 C8.443125 22.71125 7.88625 22.4225 7.3125 22.125 C6.549375 21.75375 5.78625 21.3825 5 21 C4.236875 20.54625 3.47375 20.0925 2.6875 19.625 C-0.49277893 18.88540025 -1.07098676 19.30526258 -3.8125 20.875 C-4.864375 21.57625 -5.91625 22.2775 -7 23 C-6.34 20.03 -5.68 17.06 -5 14 C-5.99 13.38125 -6.98 12.7625 -8 12.125 C-8.99 11.42375 -9.98 10.7225 -11 10 C-11 9.34 -11 8.68 -11 8 C-8.03 8 -5.06 8 -2 8 C-1.7834375 6.576875 -1.7834375 6.576875 -1.5625 5.125 C-1 2 -1 2 0 0 Z " fill="#AAC41C" transform="translate(590,630)"/>
<path d="M0 0 C2 1 2 1 2.6328125 2.84765625 C3.08854167 4.8984375 3.54427083 6.94921875 4 9 C6.97 9 9.94 9 13 9 C11.37660195 10.70884005 9.70680947 12.37446717 8 14 C7.34 14 6.68 14 6 14 C6.5259375 15.36125 6.5259375 15.36125 7.0625 16.75 C7.96468779 19.87758436 8.13381507 21.05208081 7 24 C5.35 22.68 3.7 21.36 2 20 C-1.08510827 21.19976433 -4.05047042 22.50002556 -7 24 C-6.86980469 23.33613281 -6.73960937 22.67226563 -6.60546875 21.98828125 C-6.17870292 19.25618223 -5.88177491 16.76562259 -6 14 C-8.22990529 10.84777425 -8.22990529 10.84777425 -11 9 C-8.03 9 -5.06 9 -2 9 C-1.34 6.03 -0.68 3.06 0 0 Z " fill="#009CDE" transform="translate(332,576)"/>
<path d="M0 0 C0.66 0 1.32 0 2 0 C2.66 2.97 3.32 5.94 4 9 C6.97 9 9.94 9 13 9 C12.195625 9.78375 11.39125 10.5675 10.5625 11.375 C8.01309583 13.71982856 8.01309583 13.71982856 7 16 C7.60760482 18.3494053 8.27129528 20.68529088 9 23 C6.61086117 22.46908026 4.70645681 21.8532284 2.5 20.75 C1.675 20.5025 0.85 20.255 0 20 C-2.13344768 21.3916876 -2.13344768 21.3916876 -4 23 C-4.99 22.67 -5.98 22.34 -7 22 C-6.01 18.535 -6.01 18.535 -5 15 C-5.99 14.195625 -6.98 13.39125 -8 12.5625 C-8.99 11.716875 -9.98 10.87125 -11 10 C-11 9.67 -11 9.34 -11 9 C-8.03 9 -5.06 9 -2 9 C-1.34 6.03 -0.68 3.06 0 0 Z " fill="#009CDD" transform="translate(499,642)"/>
<path d="M0 0 C0.66 0 1.32 0 2 0 C2 0.66 2 1.32 2 2 C1.34 2 0.68 2 0 2 C0 1.34 0 0.68 0 0 Z " fill="#000000" transform="translate(135,191)"/>
<path d="M0 0 C0.66 0 1.32 0 2 0 C2 0.66 2 1.32 2 2 C1.34 2 0.68 2 0 2 C0 1.34 0 0.68 0 0 Z " fill="#000000" transform="translate(284,57)"/>
</svg>
